<svg width="154" height="242" viewBox="0 0 154 242" fill="none" xmlns="http://www.w3.org/2000/svg">
<g opacity="0.2" clip-path="url(#clip0_713_71446)">
<path d="M6.54191 135.527C10.1549 135.527 13.0838 132.593 13.0838 128.972C13.0838 125.352 10.1549 122.417 6.54191 122.417C2.92891 122.417 0 125.352 0 128.972C0 132.593 2.92891 135.527 6.54191 135.527Z" fill="#4F7CFF"/>
<path d="M6.54191 165.733C10.1549 165.733 13.0838 162.798 13.0838 159.178C13.0838 155.558 10.1549 152.623 6.54191 152.623C2.92891 152.623 0 155.558 0 159.178C0 162.798 2.92891 165.733 6.54191 165.733Z" fill="#4F7CFF"/>
<path d="M6.54191 195.938C10.1549 195.938 13.0838 193.004 13.0838 189.384C13.0838 185.763 10.1549 182.829 6.54191 182.829C2.92891 182.829 0 185.763 0 189.384C0 193.004 2.92891 195.938 6.54191 195.938Z" fill="#4F7CFF"/>
<path d="M6.54191 226.144C10.1549 226.144 13.0838 223.209 13.0838 219.589C13.0838 215.969 10.1549 213.034 6.54191 213.034C2.92891 213.034 0 215.969 0 219.589C0 223.209 2.92891 226.144 6.54191 226.144Z" fill="#4F7CFF"/>
<path d="M53.0429 135.527C56.6559 135.527 59.5848 132.593 59.5848 128.972C59.5848 125.352 56.6559 122.417 53.0429 122.417C49.4299 122.417 46.501 125.352 46.501 128.972C46.501 132.593 49.4299 135.527 53.0429 135.527Z" fill="#4F7CFF"/>
<path d="M53.0429 165.733C56.6559 165.733 59.5848 162.798 59.5848 159.178C59.5848 155.558 56.6559 152.623 53.0429 152.623C49.4299 152.623 46.501 155.558 46.501 159.178C46.501 162.798 49.4299 165.733 53.0429 165.733Z" fill="#4F7CFF"/>
<path d="M53.0429 195.938C56.6559 195.938 59.5848 193.004 59.5848 189.384C59.5848 185.763 56.6559 182.829 53.0429 182.829C49.4299 182.829 46.501 185.763 46.501 189.384C46.501 193.004 49.4299 195.938 53.0429 195.938Z" fill="#4F7CFF"/>
<path d="M53.0429 226.144C56.6559 226.144 59.5848 223.209 59.5848 219.589C59.5848 215.969 56.6559 213.034 53.0429 213.034C49.4299 213.034 46.501 215.969 46.501 219.589C46.501 223.209 49.4299 226.144 53.0429 226.144Z" fill="#4F7CFF"/>
<path d="M30.2343 151.383C33.8473 151.383 36.7762 148.448 36.7762 144.828C36.7762 141.208 33.8473 138.273 30.2343 138.273C26.6213 138.273 23.6924 141.208 23.6924 144.828C23.6924 148.448 26.6213 151.383 30.2343 151.383Z" fill="#4F7CFF"/>
<path d="M30.2343 181.588C33.8473 181.588 36.7762 178.654 36.7762 175.033C36.7762 171.413 33.8473 168.479 30.2343 168.479C26.6213 168.479 23.6924 171.413 23.6924 175.033C23.6924 178.654 26.6213 181.588 30.2343 181.588Z" fill="#4F7CFF"/>
<path d="M30.2343 211.794C33.8473 211.794 36.7762 208.86 36.7762 205.239C36.7762 201.619 33.8473 198.685 30.2343 198.685C26.6213 198.685 23.6924 201.619 23.6924 205.239C23.6924 208.86 26.6213 211.794 30.2343 211.794Z" fill="#4F7CFF"/>
<path d="M30.2343 242C33.8473 242 36.7762 239.065 36.7762 235.445C36.7762 231.825 33.8473 228.89 30.2343 228.89C26.6213 228.89 23.6924 231.825 23.6924 235.445C23.6924 239.065 26.6213 242 30.2343 242Z" fill="#4F7CFF"/>
<path d="M100.25 13.1098C103.863 13.1098 106.792 10.1751 106.792 6.5549C106.792 2.93473 103.863 0 100.25 0C96.6369 0 93.708 2.93473 93.708 6.5549C93.708 10.1751 96.6369 13.1098 100.25 13.1098Z" fill="#4F7CFF"/>
<path d="M100.25 43.3154C103.863 43.3154 106.792 40.3806 106.792 36.7605C106.792 33.1403 103.863 30.2056 100.25 30.2056C96.6369 30.2056 93.708 33.1403 93.708 36.7605C93.708 40.3806 96.6369 43.3154 100.25 43.3154Z" fill="#4F7CFF"/>
<path d="M100.25 73.5214C103.863 73.5214 106.792 70.5867 106.792 66.9665C106.792 63.3464 103.863 60.4116 100.25 60.4116C96.6369 60.4116 93.708 63.3464 93.708 66.9665C93.708 70.5867 96.6369 73.5214 100.25 73.5214Z" fill="#4F7CFF"/>
<path d="M100.25 103.727C103.863 103.727 106.792 100.792 106.792 97.1721C106.792 93.5519 103.863 90.6172 100.25 90.6172C96.6369 90.6172 93.708 93.5519 93.708 97.1721C93.708 100.792 96.6369 103.727 100.25 103.727Z" fill="#4F7CFF"/>
<path d="M100.25 135.527C103.863 135.527 106.792 132.593 106.792 128.972C106.792 125.352 103.863 122.417 100.25 122.417C96.6369 122.417 93.708 125.352 93.708 128.972C93.708 132.593 96.6369 135.527 100.25 135.527Z" fill="#4F7CFF"/>
<path d="M100.25 165.733C103.863 165.733 106.792 162.798 106.792 159.178C106.792 155.558 103.863 152.623 100.25 152.623C96.6369 152.623 93.708 155.558 93.708 159.178C93.708 162.798 96.6369 165.733 100.25 165.733Z" fill="#4F7CFF"/>
<path d="M100.25 195.938C103.863 195.938 106.792 193.004 106.792 189.384C106.792 185.763 103.863 182.829 100.25 182.829C96.6369 182.829 93.708 185.763 93.708 189.384C93.708 193.004 96.6369 195.938 100.25 195.938Z" fill="#4F7CFF"/>
<path d="M100.25 226.144C103.863 226.144 106.792 223.209 106.792 219.589C106.792 215.969 103.863 213.034 100.25 213.034C96.6369 213.034 93.708 215.969 93.708 219.589C93.708 223.209 96.6369 226.144 100.25 226.144Z" fill="#4F7CFF"/>
<path d="M77.4423 28.9658C81.0553 28.9658 83.9842 26.031 83.9842 22.4109C83.9842 18.7907 81.0553 15.856 77.4423 15.856C73.8293 15.856 70.9004 18.7907 70.9004 22.4109C70.9004 26.031 73.8293 28.9658 77.4423 28.9658Z" fill="#4F7CFF"/>
<path d="M77.4423 59.1713C81.0553 59.1713 83.9842 56.2366 83.9842 52.6164C83.9842 48.9963 81.0553 46.0615 77.4423 46.0615C73.8293 46.0615 70.9004 48.9963 70.9004 52.6164C70.9004 56.2366 73.8293 59.1713 77.4423 59.1713Z" fill="#4F7CFF"/>
<path d="M77.4423 89.3769C81.0553 89.3769 83.9842 86.4422 83.9842 82.822C83.9842 79.2018 81.0553 76.2671 77.4423 76.2671C73.8293 76.2671 70.9004 79.2018 70.9004 82.822C70.9004 86.4422 73.8293 89.3769 77.4423 89.3769Z" fill="#4F7CFF"/>
<path d="M77.4423 119.583C81.0553 119.583 83.9842 116.648 83.9842 113.028C83.9842 109.408 81.0553 106.473 77.4423 106.473C73.8293 106.473 70.9004 109.408 70.9004 113.028C70.9004 116.648 73.8293 119.583 77.4423 119.583Z" fill="#4F7CFF"/>
<path d="M77.4423 151.383C81.0553 151.383 83.9842 148.448 83.9842 144.828C83.9842 141.208 81.0553 138.273 77.4423 138.273C73.8293 138.273 70.9004 141.208 70.9004 144.828C70.9004 148.448 73.8293 151.383 77.4423 151.383Z" fill="#4F7CFF"/>
<path d="M77.4423 181.588C81.0553 181.588 83.9842 178.654 83.9842 175.033C83.9842 171.413 81.0553 168.479 77.4423 168.479C73.8293 168.479 70.9004 171.413 70.9004 175.033C70.9004 178.654 73.8293 181.588 77.4423 181.588Z" fill="#4F7CFF"/>
<path d="M77.4423 211.794C81.0553 211.794 83.9842 208.86 83.9842 205.239C83.9842 201.619 81.0553 198.685 77.4423 198.685C73.8293 198.685 70.9004 201.619 70.9004 205.239C70.9004 208.86 73.8293 211.794 77.4423 211.794Z" fill="#4F7CFF"/>
<path d="M77.4423 242C81.0553 242 83.9842 239.065 83.9842 235.445C83.9842 231.825 81.0553 228.89 77.4423 228.89C73.8293 228.89 70.9004 231.825 70.9004 235.445C70.9004 239.065 73.8293 242 77.4423 242Z" fill="#4F7CFF"/>
<path d="M147.458 13.1098C151.071 13.1098 154 10.1751 154 6.5549C154 2.93473 151.071 0 147.458 0C143.845 0 140.916 2.93473 140.916 6.5549C140.916 10.1751 143.845 13.1098 147.458 13.1098Z" fill="#4F7CFF"/>
<path d="M147.458 43.3154C151.071 43.3154 154 40.3806 154 36.7605C154 33.1403 151.071 30.2056 147.458 30.2056C143.845 30.2056 140.916 33.1403 140.916 36.7605C140.916 40.3806 143.845 43.3154 147.458 43.3154Z" fill="#4F7CFF"/>
<path d="M147.458 73.5214C151.071 73.5214 154 70.5867 154 66.9665C154 63.3464 151.071 60.4116 147.458 60.4116C143.845 60.4116 140.916 63.3464 140.916 66.9665C140.916 70.5867 143.845 73.5214 147.458 73.5214Z" fill="#4F7CFF"/>
<path d="M147.458 103.727C151.071 103.727 154 100.792 154 97.1721C154 93.5519 151.071 90.6172 147.458 90.6172C143.845 90.6172 140.916 93.5519 140.916 97.1721C140.916 100.792 143.845 103.727 147.458 103.727Z" fill="#4F7CFF"/>
<path d="M147.458 135.527C151.071 135.527 154 132.593 154 128.972C154 125.352 151.071 122.417 147.458 122.417C143.845 122.417 140.916 125.352 140.916 128.972C140.916 132.593 143.845 135.527 147.458 135.527Z" fill="#4F7CFF"/>
<path d="M147.458 165.733C151.071 165.733 154 162.798 154 159.178C154 155.558 151.071 152.623 147.458 152.623C143.845 152.623 140.916 155.558 140.916 159.178C140.916 162.798 143.845 165.733 147.458 165.733Z" fill="#4F7CFF"/>
<path d="M124.738 28.9658C128.351 28.9658 131.28 26.031 131.28 22.4109C131.28 18.7907 128.351 15.856 124.738 15.856C121.125 15.856 118.196 18.7907 118.196 22.4109C118.196 26.031 121.125 28.9658 124.738 28.9658Z" fill="#4F7CFF"/>
<path d="M124.738 59.1713C128.351 59.1713 131.28 56.2366 131.28 52.6164C131.28 48.9963 128.351 46.0615 124.738 46.0615C121.125 46.0615 118.196 48.9963 118.196 52.6164C118.196 56.2366 121.125 59.1713 124.738 59.1713Z" fill="#4F7CFF"/>
<path d="M124.738 89.3769C128.351 89.3769 131.28 86.4422 131.28 82.822C131.28 79.2018 128.351 76.2671 124.738 76.2671C121.125 76.2671 118.196 79.2018 118.196 82.822C118.196 86.4422 121.125 89.3769 124.738 89.3769Z" fill="#4F7CFF"/>
<path d="M124.738 119.583C128.351 119.583 131.28 116.648 131.28 113.028C131.28 109.408 128.351 106.473 124.738 106.473C121.125 106.473 118.196 109.408 118.196 113.028C118.196 116.648 121.125 119.583 124.738 119.583Z" fill="#4F7CFF"/>
<path d="M124.738 151.383C128.351 151.383 131.28 148.448 131.28 144.828C131.28 141.208 128.351 138.273 124.738 138.273C121.125 138.273 118.196 141.208 118.196 144.828C118.196 148.448 121.125 151.383 124.738 151.383Z" fill="#4F7CFF"/>
</g>
<defs>
<clipPath id="clip0_713_71446">
<rect width="154" height="242" fill="white"/>
</clipPath>
</defs>
</svg>
