<?xml version="1.0" encoding="UTF-8"?>
<svg viewBox="0 0 973.06464 466.10001" xmlns="http://www.w3.org/2000/svg" >
 <g transform="translate(175.94 -432.28)">
  <path d="m-83.0414,897.691c-.2711-.4386-.4233-6.7599-.3382-14.0474s.1119-15.0499.0597-17.2499l-.0949-4-14.0318.3466c-10.0845.2491-14.4491.0003-15.5151-.8844-1.2969-1.0763-1.4125-11.1281-.9204-79.9819l.5629-78.7509-3.1035-1.0819c-14.5174-5.0608-16.1638-25.2491-2.8415-34.844 2.5586-1.8427 4.8493-3.9024 5.0904-4.577s.5446-14.189.6745-30.032c.2324-28.3553-.2071-32.8694-3.0302-31.1246-.4877.3014-.8867,8.2947-.8867,17.7628v17.2148l-6.0174,6.2262-6.0174,6.2262h-5.9175c-7.5605,0-11.4937-1.3953-10.5879-3.7561 .3648-.9505.8984-11.0693 1.1858-22.4861l.5226-20.7578-2.3341-.1986c-1.2838-.1092-8.4091-.2217-15.8341-.25l-13.5-.0514-.0123-22.5-.0123-22.5 2.5414-2.5c2.2207-2.1846 19.4313-18.1286 26.8611-24.8842 1.4422-1.3113 7.1221-6.5741 12.6221-11.6952s11.35-10.5183 13-11.9939 4.8089-4.3128 7.0199-6.3049 6.2609-5.6149 9-8.0508c7.6863-6.8356 24.2157-22.0138 30.0256-27.5711 2.875-2.75 7.4159-6.9457 10.0909-9.3237s8.4782-7.8925 12.896-12.2542l8.0324-7.9305 162.9676.0187c206.6051.0237 240.4516-.0147 297.3509-.3376 38.9014-.2207 46.6114-.035 47.7976,1.1511 .7779.7779 1.1659,1.6627.8623,1.9663-.7395.7395-92.4833.6031-93.225-.1386-.3196-.3196-1.3095-.2081-2.1997.248s-68.1429.7258-149.4505.5995l-147.832-.2297-.7764,2.0989-.7764,2.0989-.6659-2.0981c-.6462-2.036-1.151-2.0886-17.0522-1.7797-14.2456.2768-16.466.1107-16.9965-1.2716-.5492-1.4313-.7828-1.4368-2.3393-.0555-1.4878,1.3204-7.0328,1.5409-39.7292,1.5798l-38,.0452-2.5526,2.8064c-1.4039,1.5435-4.5539,4.5664-7,6.7176-4.6611,4.0991-24.0388,21.937-29.427,27.0888-4.687,4.4813-22.9909,21.2114-34.2704,31.3238-3.4375,3.0818-6.25,6.11-6.25,6.7292s-1.1012,1.6277-2.4471,2.2409-3.1977,2.2605-4.115,3.6605-2.1147,2.5455-2.6609,2.5455c-1.0601,0-6.1742,4.6668-22.1912,20.25-5.5118,5.3625-10.3036,9.75-10.6486,9.75-.345,0-1.39.8428-2.3222,1.8729-1.6064,1.7751-1.5754,1.9062.595,2.5099 1.2595.3504 102.19.3936 224.29.096s243.15-.5129 269-.4786 52.175.0157 58.5-.0414 47.5-.2397 91.5-.4058 81.125-.3501 82.5-.4089 14.2-.0779 28.5-.0423 37.8243.0273 52.2762-.0185l26.2763-.0833 6.1901-5.75c3.4046-3.1625 9.3552-8.6954 13.2238-12.2953s9.7337-8.9568 13.0337-11.9042 11.7125-10.6849 18.6945-17.1946c8.5958-8.0143 13.1949-11.6437 14.2443-11.241 .8524.3271 1.3008.9975.9965,1.4899-1.2719,2.058 1.4041.6724 4.0648-2.1048 1.5808-1.65 3.465-3 4.1871-3s1.3129-.3532 1.3129-.7849c0-.8877 6.8119-7.7929 15-15.2053 3.025-2.7384 4.9777-4.9859 4.3394-4.9944s-3.3383,2.1623-6,4.824c-12.9714,12.9715-21.6082,20.2917-22.6785,19.2215-.7888-.7888.858-2.9598 5.9366-7.8262 27.2316-26.0944 37.691-35.7766 38.9528-36.058 .7974-.1778 1.4498-.7085 1.4498-1.1792s2.7-3.4312 6-6.5789 6-6.1419 6-6.6538c0-.5722-31.4938-.6732-81.75-.2621-44.9625.3678-85.575.6677-90.25.6666-147.5241-.0346-151.2151-.0511-151.842-.6781-.2178-.2178.22-.9982.973-1.7342 1.5193-1.485 3.9317-1.5278 126.8763-2.2533 39.329-.2321 72.0213-.1029 72.6496.2871s11.425.484 23.9928.2091c12.5677-.275 23.3004-.2877 23.8504-.0281 1.7756.8378 3.5.8719 3.5.0691 0-.4301 17.1684-.6839 38.152-.5639 34.2296.1958 38.2768.3888 39.3653,1.8775 .8762,1.1984 1.1465,7.2675.9729,21.8466l-.2405,20.1872-2.8749,2.4535c-1.5812,1.3494-9.2874,8.5193-17.1249,15.9332l-14.25,13.4797v15.9059 15.9059l-3.3191,3.2167c-1.8255,1.7692-5.538,5.1121-8.25,7.4287-4.7867,4.0888-5.1414,4.2131-12.1219,4.25-4.3852.0231-7.4687-.4113-7.9027-1.1136-.3914-.6334-.6177-4.0543-.5029-7.602 .1596-4.9308-.0989-6.3479-1.0973-6.0151-1.0391.3464-1.3787,8.903-1.6609,41.852-.3072,35.8667-.6818,60.2973-1.0336,67.4166-.0544,1.1-.0649,14.0327-.0235,28.7394s-.2205,28.2067-.582,30c-.4336,2.1504-2.4112,4.8779-5.8084,8.0106l-5.151,4.75h-7.2143c-4.399,0-7.4944.4532-7.9321,1.1613-.3948.6387-.6554,14.9529-.5791,31.8092l.1386,30.6478-7.2299,6.5899c-3.9764,3.6244-7.5564,6.9243-7.9554,7.333s-7.3211.6518-15.3825.5402c-14.5058-.2008-14.6513-.1809-14.1003,1.926 .3062,1.1709.0884,3.4722-.4839,5.1141-.9304,2.6688-1.4258,2.9531-4.6742,2.6818-3.1305-.2614-3.6774-.6842-3.95-3.0534-.3969-3.4493-1.1566-3.4493-4.3765,0-2.2628,2.424-2.6486,3.917-3.2544,12.5948-.378,5.4146-1.0452,10.8123-1.4826,11.9948s-.3496,3.4287.1952,4.9916c.7704,2.2099.6459,3.1862-.5598,4.3919-2.445,2.445-4.7055.8704-4.7055-3.2776 0-1.9895-.7875-6.5782-1.75-10.1971-1.3566-5.1008-1.469-6.6738-.5-6.9975 .6875-.2297 1.25-.8301 1.25-1.3342 0-1.5943-2.4007-.9867-5.2879,1.3383-2.5558,2.0582-2.8388,2.9745-3.3995,11.0083-.6432,9.2161-2.3787,13.5562-4.2932,10.7367-.5602-.825-.9315-3.1752-.8251-5.2228s-.1188-4.035-.5004-4.4167-.7008,4.6686-.7092,11.2228c-.0168,13.087-.5619,15.003-3.9612,13.9241-2.0577-.6531-2.1746-.4719-1.5454,2.393 .5491,2.5.3579,3.0995-.9885,3.0995-1.4895,0-1.5876-.9419-.9112-8.75 .4169-4.8125.6874-9.7625.601-11s.3248-2.25.9138-2.25c.6903,0 .9529,2.4714.7388,6.9547-.1826,3.8251.0348,6.5857.4832,6.1348 1.2815-1.2888 2.0027-22.4039.7386-21.6227-.5796.3582-1.0538,1.7497-1.0538,3.0923 0,2.5459-1.528,3.3569-2.2491,1.1936-.2571-.7714-.8705-.3977-1.6074.9793-1.5239,2.8475-1.6504,25.4524-.1579,28.241 .7729,1.4441.777,2.6022.0145,4.027-1.0219,1.9094-3.1301,2.8239-2.8816,1.25 .0651-.4125.0209-1.2-.0984-1.75-.431-1.9881.0951-24.8772.5902-25.6784 1.0181-1.6474-.671-2.8007-2.4628-1.6816-1.5749.9835-1.7306,2.6883-1.4816,16.2202 .1696,9.2185.6795,15.2549 1.3062,15.4638 .5654.1885 1.028,1.6335 1.028,3.2113 0,2.2646-.926,3.5057-4.3976,5.8942-2.4187,1.6641-7.2203,5.8482-10.6702,9.298l-6.2727,6.2724-15.5797-.0328c-29.4566-.062-41.9544-.5961-42.3928-1.8117-.2292-.6355-.0895-1.8305.3104-2.6555s1.0066-4.3066 1.3482-7.7368l.6211-6.2368-5.2269.582c-2.8748.3201-6.1083,1.0537-7.1855,1.6302-1.4067.7528-2.066.726-2.3397-.0952-.4682-1.4046-4.2144-1.532-4.2144-.1434 0,1.2445-1.173,1.2649-4.3028.075-3.8587-1.4671-59.2599-2.4508-126.6972-2.2496-20.075.0599-37.4.1077-38.5.1062-104.9829,1.6394-210.0347-2.1702-315,.3638-29.5097.7547-36.5,1.5251-36.5,4.0223 0,1.43-9.8836,10.6823-11.4112,10.6823-.7997,0-1.7397.9-2.0888,2s-1.392,2.0768-2.3174,2.1707c-5.9459.603-52.4075.2745-52.8079-.3734v7e-005zm654.6253-3.7973c0-.55 1.1474-1 2.5497-1 2.5177,0 2.5414-.0732 1.8878-5.85-.5552-4.9069-.3958-5.952.9882-6.4831 1.8984-.7285 3.0539,1.3915 2.3096,4.2374-.2696,1.0309-.1022,2.4867.372,3.2351 .6048.9545.8667.5398.8774-1.3893 .008-1.5125.4769-2.75 1.041-2.75 1.2079,0-1.4536-5.5284-3.1731-6.5911-.7222-.4464-.8917-.2812-.4481.4366 .4042.654.1308,1.1545-.6305,1.1545-1.1006,0-1.3076-5.5691-1.1426-30.75 .3413-52.088.3982-68.6085.4587-133.25 .0322-34.375.1811-73.525.3309-87 .1498-13.475.0815-25.028-.1519-25.6734-.3092-.855-6.7795-1.1553-23.8467-1.1067l-23.4224.0667-.1001,16.1067c-.0551,8.8587-.2085,27.1317-.3409,40.6067-.1324,13.475-.3421,71.75-.4659,129.5l-.2251,105 19.7556.0686c14.2514.0495 19.8653.3977 20.1494,1.25 .4776,1.4328 3.2272,1.5874 3.2272.1814v3e-005zm-606.5-1.2936c1.6052-.1657 2.0276-.9961 2.1397-4.2064 .5251-15.0349 1.3958-283.8129.9242-285.2986-.5379-1.6947-1.7314-1.8574-13.0778-1.7832-10.3791.068-12.4918.3349-12.5209,1.5818-.4072,17.4539-.3295,24.0004.2848,24.0002 .4125-.0001.75-.4502.75-1.0002s.8449-1 1.8776-1 2.4377-.675 3.1224-1.5c3.4014-4.0984 11,.8601 11,7.1781 0,4.4625-2.5055,10.3219-4.4138,10.3219-.8337,0-1.9975.9-2.5862,2s-1.7295,2-2.5352,2-1.4648.5297-1.4648,1.1772-1.3934,2.3405-3.0965,3.7623l-3.0965,2.5851-.0674,14.4877c-.0371,7.9683.006,31.2497.0965,51.7365l.1639,37.2488 7.25-.3704c3.9875-.2037 7.8125-.155 8.5.1082 .9148.3503 1.25,4.1064 1.25,14.008v13.5293l-8.6516,8.3455-8.6516,8.3455 .0414,22.2681c.0485,26.0415-.0434,26.3694-9.7437,34.7729-4.5364,3.9299-6.8721,5.2747-9.054,5.2126-1.6173-.046-3.0012.4488-3.0753,1.0995-.5068,4.4482-.7315,23.7723-.3069,26.3997l.5198,3.2166 10.711.2834c9.9038.2621 29.0343-.0274 33.711-.5101h4e-005zm620.2494-9.109c-.1372-1.8714-.5869-3.1948-.9994-2.941-1.1255.6926-.9033,6.3435.2494,6.3435 .5497,0 .8872-1.5312.75-3.4026zm-606.7036-.6831c1.5015-2.8056.1689-3.9241-1.6833-1.4128-.8107,1.0991-2.1239,1.8662-2.9182,1.7046s-1.4443.1759-1.4443.75c0,1.9512 4.8955,1.1077 6.0458-1.0418zm610.9652-2.3417c-.3695-2.435-.2926-5.105.1709-5.9333 .4802-.858.4372-1.7567-.0999-2.0886-.5185-.3204-.72-2.9379-.4478-5.8167 .5431-5.7437-.3814-15.7329-1.4563-15.7361-.3729-.001-.5375,4.9489-.3657,11 .2589,9.1183.0626,11.002-1.1466,11.002-1.1867,0-1.4313-1.7729-1.3104-9.5 .0817-5.225-.1898-9.5-.6034-9.5s-.7519-.675-.7519-1.5c0-2.4787-2.7308-1.6885-3.2324.9354-.5027,2.6294.6685,5.3767 1.9459,4.5647 .4326-.275 1.0115,3.775 1.2865,9 .3138,5.9619.8259,8.9947 1.375,8.1432 1.3016-2.0182 2.5906.4632 2.6097,5.0234 .008,2.0167.5778,3.8936 1.2653,4.1711s1.2912.5399 1.3415.5833-.2109-1.9133-.5804-4.3484zm-606.011.0498c0-.2077-.675-.9377-1.5-1.6224-1.2285-1.0196-1.5-.9512-1.5.3776 0,.8923.675,1.6224 1.5,1.6224s1.5-.1699 1.5-.3776zm613.3324-10.373c-.0922-5.9122-.2047-13.8135-.25-17.5584-.0511-4.225-.4585-6.5766-1.0735-6.1965-.6169.3812-.842,6.9172-.5963,17.309 .4412,18.6544.3278,17.1967 1.3374,17.1959 .4125-.0003.6746-4.8378.5824-10.75zm-3.8432-5.6769c-.006-8.4851-.3434-15.7601-.75-16.1667s-.7609.3483-.7874,1.6775c-.4507,22.5753-.3161,29.9163.5482,29.9164 .6239.0001.9959-5.8016.9892-15.4273zm-605.2471,10.0029c.2778.2778 4.7244.4505 9.8815.3839 157.1254.011 314.2515.6724 471.3764-.0844l56-.4908 .2812-17.2106 .2812-17.2106-97.2812.5173c-53.5046.2845-175.8062.7087-271.7812.9427-95.975.234-174.95.4597-175.5.5015-.6075.0462-1.1251,6.3591-1.3187,16.0826-.3176,15.9536-.311,16.0094 2,16.8815 1.2776.4821 3.0453.4949 3.9372.0284s1.8458-.6194 2.1236-.3416v-4e-005zm-14.6379-2.3046c-.3323-.3323-.5686.2583-.5252,1.3125 .048,1.1649.2849,1.4019.6042.6042 .2889-.7219.2534-1.5844-.0789-1.9167h-4e-005zm608.2408-9.2708c-.1298-2.2-.598-4-1.0405-4s-.8045,1.8-.8045,4 .4682,4 1.0405,4c.5866,0 .9375-1.745.8045-4zm-658.3297-6.0248c.6584-1.0654.6935-261.8284.0354-262.8933-1.6725-2.7061 5.7158-22.082 8.4201-22.082 1.1566,0 4.0293-2.8843 4.0293-4.0456 0-1.419-28.2145-.8664-30,.5876-.825.6718-2.4622,1.5141-3.6382,1.8717s-3.4168,2.5483-4.9794,4.8683c-7.8942,11.7199-8.3823,14.4387-8.3823,46.6894v27.1635l2.25-.8174c3.698-1.3434 10.7527-.9197 11.8325.7107 .8938,1.3495.8227,4.3908-.1832,7.8415-.2443.8379.9254,1.8316 3.0126,2.5595 4.7019,1.6398 10.8613,7.9972 12.0214,12.4077s.4113,12.9007-1.3834,15.6631c-.7147,1.1-4.2393,4.9446-7.8325,8.5435l-6.5331,6.5435 .3824,9.4565c.2103,5.2011.6058,16.0988.879,24.2172 .4389,13.0459.7323,15.0138 2.5255,16.9386 4.1142,4.4161 1.2995,12.9423-4.6479,14.0793-3.6681.7012-6.6226-.5604-8.6856-3.709-1.6312-2.4895-1.6153-2.8314.3357-7.242 2.1934-4.9585 2.161-2.3023.4915-40.2972-.4442-10.1101-1.4078-14.4206-2.8917-12.9367-.2532.2532-.7138,35.1161-1.0236,77.473l-.5632,77.0127 16.9806.1574c9.4328.0874 17.233-.2511 17.5485-.7615zm50.9747-3.9916c-.3455-.559-1.047-.7574-1.559-.441-1.387.8572-1.1284,1.4573.6281,1.4573 .8575,0 1.2764-.4573.9309-1.0163zm-42.8857-3.7129c-.3323-.3323-.5686.2583-.5252,1.3125 .048,1.1649.2849,1.4019.6042.6042 .2889-.7219.2534-1.5844-.0789-1.9167h-4e-005zm4.3958-12.2708c0-5.5-.4089-10-.9087-10s-.7627,1.9125-.5843,4.25 .3623,6.8375.4087,10 .3093,5.75.5843,5.75 .5-4.5.5-10zm648,6.5c0-1.925-.4102-3.5-.9115-3.5s-.7608.7875-.5765,1.75 .3694,2.5375.4115,3.5c.1434,3.2799 1.0765,1.7631 1.0765-1.75zm-610,.941c0-.8575-.4573-1.2764-1.0163-.9309s-.7574,1.047-.441,1.559c.8572,1.387 1.4573,1.1284 1.4573-.6281zm619.7864-4.01c2.5925-2.513 5.9192-5.208 7.3928-5.989s2.9663-2.3249 3.3174-3.431 .9634-2.011 1.3609-2.011c.6685,0 3.6578-2.5668 13.4264-11.5287 2.0811-1.9092 4.1259-3.4713 4.5441-3.4713s4.0638-3.15 8.1015-7 7.6584-7 8.0459-7 3.3869-2.5875 6.6652-5.75 7.9628-7.4195 10.41-9.4599c7.7809-6.4876 23.5366-21.9337 21.2508-20.8332-1.2093.5822-2.7843,1.8652-3.5,2.8511s-2.2466,2.4449-3.4019,3.2423c-2.6145,1.8044-14.7537,12.4811-23.2511,20.4498-8.3907,7.8687-8.5854,8.0414-16.6914,14.8035-3.8263,3.1919-8.5319,7.2669-10.4569,9.0554-1.925,1.7886-5.075,4.5292-7,6.0904-1.925,1.5612-6.7957,5.8112-10.8238,9.4446s-7.9823,6.9753-8.7871,7.4266c-3.0132,1.6895-8.3323,7.6795-6.8193,7.6795 .8267,0 3.6242-2.0561 6.2167-4.569zm-654.7864.569c0-1.65-.3721-3-.8268-3s-.6287,1.35-.3865,3 .6142,3 .8268,3 .3865-1.35.3865-3zm-7.3958-1.7292c-.3323-.3323-.5686.2583-.5252,1.3125 .048,1.1649.2849,1.4019.6042.6042 .2889-.7219.2534-1.5844-.0789-1.9167h-4e-005zm522.3405-.7758c39.2946-.3031 71.6271-.7335 71.8501-.9565s.148-.8221-.1668-1.3314c-.8931-1.445-541.9358-.2982-542.844,1.1506-.5203.83 3.4434,1.2789 14.5,1.6422 18.8859.6206 359.569.2439 456.6606-.505zm130.3189-1.421c1.0021-1.0527.8112-1.1704-1.0073-.621-1.8676.5642-2.1342.3734-1.5907-1.1376 .8263-2.2971-.0338-1.5091-1.5648,1.4336-1.0424,2.0036-.9466,2.2149.8781,1.9364 1.1265-.1719 2.6046-.8971 3.2847-1.6114zm11.7093-4.9571c4.1256-3.7028 3.1318-4.2242-1.1632-.6103-1.6385,1.3787-3.3918,2.2516-3.8962,1.9398s-1.3664.6145-1.9153,2.0584c-1.449,3.8111-1.259,4.0822 1.2519,1.7864 1.2375-1.1315 3.8128-3.46 5.7229-5.1743zm-617.277,1.633c.0184-2.3375.1328-6.725.2541-9.75 .3302-8.2338.1379-11-.7646-11-.4481,0-.8972,5.625-.998,12.5s.1898,12.5.6458,12.5 .8443-1.9125.8628-4.25zm-39.7982-2-.1024-4.25-.8174,3.4753c-.7496,3.1872-.5371,5.0247.5812,5.0247 .2425,0 .3949-1.9125.3386-4.25zm-6.6652-2.3146c-.6823-3.569-1.2346-2.9724-1.2171,1.3147 .01,2.3904.3176,3.2734.849,2.4354 .4585-.723.6242-2.4106.3681-3.75zm50.7676,2.0646c0-.825-.45-1.5-1-1.5s-1,.675-1,1.5 .45,1.5 1,1.5 1-.675 1-1.5zm3.8353-26.2427c.0728-38.9772.2692-47.093 1.0709-44.2573 .6873,2.4309.7228,2.44 1.286.329 .6059-2.2707-.0783-22.5216-.7853-23.2456-.2238-.2292-.4707,4.2708-.5488,10-.0922,6.7683-.3581,9.0157-.7593,6.4167-.5516-3.574-.5648-6.4157-.0787-17 .0758-1.65.3657-2.4347.6442-1.7438 .7844,1.9457 2.3356.408 2.3356-2.3152 0-2.8072-1.6303-3.2947-2.3107-.691-.4899,1.8745-1.0766-25.8326-.7283-34.3884 .1158-2.845-.2751-5.4377-.8759-5.809-.7617-.4708-1.1043,4.0411-1.1495,15.1384-.0667,16.3735-.0467,117.6584.0242,122.618 .0221,1.545.4418,2.5608.9328,2.2573s.9151-12.5925.9426-27.309h2e-005zm3.1647,25.7427c0-1.1-.1725-2-.3834-2s-.6187.9-.9064,2-.1151,2 .3834,2 .9064-.9.9064-2zm392.2701.6581c78.5236-.2008 142.9901-.585 143.259-.8539s.5559-12.3249.6377-26.7911l.1488-26.3023c-50.1046,1.1325-100.345-1.3304-150.4281.8587-.4839.2991-.7691,1.9474-.6337,3.663 .1974,2.5019-.362,3.5359-2.8268,5.2244-1.6901,1.1578-2.9167,2.574-2.7257,3.1471s-.5485,1.8526-1.6434,2.8435c-1.7353,1.5705-4.3356,1.8409-20.2743,2.1085-21.91.3679-20.0342.2296-19.2969,1.4226 .3326.5382-.4283,2.3911-1.691,4.1176-2.8507,3.8977-10.6425,11.9022-11.5923,11.9087-65.0334.4501-236.7548-.1563-237.437-.8384-1.222-1.222-2.1312-15.2486-1.3333-20.5694 .506-3.3744 1.452-4.8007 5.0568-7.624 6.5585-5.1368 5.998-5.9731-4.0035-5.9731-8.3984,0-11.6991.929-14.1163,3.9732-.8947,1.1268-3.1768,1.4196-9.7046,1.2451l-8.5348-.2281-15.8507,15.2549c-20.356,19.5908-31.4312,29.7549-32.4223,29.7549-.4331,0-1.2088.7875-1.7239,1.75-.8887,1.6607 3.6902,1.75 89.7148,1.75 49.8582,0 103.7013.225 119.6513.5s30.35.3927 32,.2616 67.2465-.4027 145.7701-.6034zm203.416-7.1581c-.0781-4.125-.5216-7.5-.9856-7.5s-.7128,1.0125-.5529,2.25-.0402,2.7814-.4447,3.4309-.3204,1.4374.187,1.751 .6889,1.4629.4036,2.5541c-.5004,1.9136.1731,5.014 1.0893,5.014 .245,0 .3816-3.375.3035-7.5zm4.49-6c.7514-.7047.9147,1.0204.5528,5.8422-.3849,5.1293-.2275,6.5565.6288,5.7008 .6282-.6278 1.2237-4.6068 1.3233-8.8423s.2121-8.7133.25-9.9507 .5523-2.25 1.1431-2.25c.6376,0 1.0079,1.9303.9111,4.75-.3493,10.1789-.1299,11.6149 1.5602,10.2122 .8657-.7185 1.2682-1.9819.915-2.8724-.3468-.8744-.5782-28.3413-.5143-61.0377s-.1113-59.2204-.3894-58.9423-.7209,3.3459-.9841,6.8174-.7636,6.5955-1.1121,6.9423c-.4485.4463-.0206-62.744.5023-74.1785 .0204-.445.487-.5309 1.037-.191s1-.3351 1-1.5-.4159-1.861-.9243-1.5468c-1.3192.8153-1.622-1.6319-1.2463-10.0732 .1857-4.1716.731-7.1518 1.25-6.831 .5064.313.9206-.1591.9206-1.049s-.45-1.3399-1-1c-.6371.3938-1-2.5093-1-8 0-5.042-.3849-8.3802-.9275-8.0448s-1.0165,19.7249-1.1423,46.809c-.1181,25.4297-.3122,49.8358-.4313,54.2358s-.3579,22.7244-.5307,40.7209-.6228,33.2203-1.0001,33.8307c-1.1964,1.9359-1.5819-4.0647-1.3522-21.0515 .4825-35.681.4433-78.2741-.0725-78.7899-.2989-.2989-.6101,4.144-.6916,9.8732-.1849,13.0081-.1976,13.1795-1.073,14.5243-.3966.6092-.3704,2.4092.0582,4s.7163,6.9424.6394,11.8924c-.3388,21.8065-.4693,23.669-1.6325,23.2813-.8164-.2721-1.0949-4.6097-.9479-14.7631 .1145-7.9078.4362-14.7469.715-15.198s.0661-.8202-.4726-.8202c-1.7594,0-2.0455,5.1148-1.8406,32.909 .194,26.308.1247,27.4293-1.7242,27.9127-1.8636.4873-1.8604.5281.0988,1.2528 1.8234.6745 2.0153,1.5796 1.9263,9.0873-.0544,4.586-.4751,8.9203-.9349,9.6319-.4802.7431-.3665,1.8596.2672,2.6233 .6068.7312.8399,2.016.5179,2.855s-.1048,1.8227.4828,2.1858c.7411.4581 1.0682-4.4096 1.0682-15.8988 0-10.3727.3736-16.559 1-16.559 .9717,0 1.5005,6.3654 1.2046,14.5-.1391,3.8247-.0993,3.8795.9083,1.25 .5796-1.5125 1.3538-2.7503 1.7205-2.7506 1.2322-.001.1384,35.4-1.1177,36.1763-1.1768.7273-2.7136,13.4863-1.743,14.4714 .2901.2944.6646-2.0932.8323-5.3059s.7847-6.2913 1.3712-6.8413zm2.8392-15.25c.0111-3.4355.2836-4.3349.9847-3.25 1.2777,1.9771 1.2777,8 0,8-.55,0-.9931-2.1375-.9847-4.75zm.6514-5.9167c-1.0374-1.0374-.7838-4.3333.3333-4.3333 .55,0 1,1.125 1,2.5 0,2.6181-.231,2.9357-1.3333,1.8333zm-.6514-15.0833c.0114-2.7894.2636-3.3657.9847-2.25 1.2737,1.9709 1.2737,6 0,6-.55,0-.9931-1.6875-.9847-3.75zm-.0153-10.809c0-2.118.4049-3.3088 1-2.941 .55.3399 1,1.9415 1,3.559s-.45,2.941-1,2.941-1-1.6016-1-3.559zm.221-10.84c.0199-3.5195.4214-7.007.8923-7.75 .518-.8174.8621,1.7099.8714,6.3991 .008,4.2625-.3931,7.75-.8923,7.75s-.8913-2.8796-.8714-6.3991zm-7.1027-.6338c-.1064-3.5444.2393-5.9671.8513-5.9671 1.2387,0 1.4058,10.6499.179,11.4081-.4682.2894-.9319-2.1591-1.0304-5.441zm-.1183-11.9671c0-2.75.45-5 1-5s1,2.25 1,5-.45,5-1,5-1-2.25-1-5zm7.4462,1.9129c-.3695-.5979-.1711-1.5879.441-2.2 .8172-.8172 1.1129-.5283 1.1129,1.0871 0,2.4145-.5195,2.7866-1.5539,1.1129zm-.3759-13.6629c.0467-5.8188.3582-8.08.9297-6.75 1.2181,2.8346 1.2181,15.5 0,15.5-.5958,0-.9716-3.5365-.9297-8.75zm.2875-14.75c-.0225-2.475.3378-4.5.8006-4.5s.8416,2.025.8416,4.5-.3603,4.5-.8006,4.5-.819-2.025-.8416-4.5zm-610.3578,97.441c0-5.294-.4079-8.941-1-8.941-.5969,0-1,3.853-1,9.559 0,6.118.36,9.3365 1,8.941 .55-.3399 1-4.6415 1-9.559zm22.7176-1.3742c5.0871-4.9133 9.0364-9.1461 8.7762-9.4062s-1.9402.948-3.7334,2.6849-6.5229,6.2125-10.5104,9.9459-7.25,7.1628-7.25,7.6208c0,1.1851 2.2347-.7206 12.7177-10.8453zm574.8865,8.704c-.3323-.3323-.5686.2583-.5252,1.3125 .048,1.1649.2849,1.4019.6042.6042 .2889-.7219.2534-1.5844-.0789-1.9167h-4e-005zm-590.6042-5.4965c0-3.3592-.2602-5.8475-.5782-5.5294-.9136.9136-1.1423,12.7004-.2355,12.14 .4475-.2766.8137-3.2513.8137-6.6105zm622.9809-2.5243c1.7113-1.541 2.0292-2.2496 1.0089-2.2489-1.5903.001-13.0099,9.9434-12.9973,11.3158 .007.7747 6.5773-4.1943 11.9884-9.067zm-673.9592-3.897-.4783-10.853-.5217,10c-.5301,10.1612-.2363,14.4593.8671,12.6875 .3362-.5399.396-5.8654.1329-11.8345zm-3.3159,5.397c-.2384-1.2375-.4334-.225-.4334,2.25s.195,3.4875.4334,2.25 .2384-3.2625 0-4.5zm698.8984,3.5208c-.3323-.3323-.5686.2583-.5252,1.3125 .048,1.1649.2849,1.4019.6042.6042 .2889-.7219.2534-1.5844-.0789-1.9167h-4e-005zm-53.9419-1.5208c-.2774-.6875-.5044-.125-.5044,1.25s.227,1.9375.5044,1.25 .2774-1.8125 0-2.5zm37.7801,2.3433c.3082-.4987-.3402-.6712-1.441-.3834-2.335.6106-2.6302,1.2901-.5604,1.2901 .7925,0 1.6932-.408 2.0014-.9067zm-686.2377-4.692c-.6735-1.2035-.9171-.7709-.9853,1.75-.0729,2.6928.1024,3.0059.8947,1.5987 .5945-1.0559.6305-2.3842.0906-3.3487h5e-005zm67.2953-1.2649c5.8497-5.4695 7.9145-8.5302 2.5-3.7058-3.025,2.6953-5.9275,5.276-6.45,5.735-.6.527-.6.8236 0,.8051 .5225-.0161 2.3-1.2916 3.95-2.8343zm602.9206-.9876c-.046-1.2443.5293-2.1488 1.3666-2.1488 1.0116,0 1.2649-.676.8431-2.25-.3316-1.2375-.6091-2.6033-.6166-3.0352s-.8731-.3252-1.9235.2369c-1.4684.7859-1.894,2.0723-1.8412,5.5656 .0427,2.8236.4817,4.399 1.1598,4.1619 .6001-.2099 1.0554-1.3485 1.0118-2.5304zm32.8101-.5751c.3615-1.8911.0563-2.3956-1.3834-2.2872-1.8861.1421-2.6631,1.7135-.8472,1.7135 .55,0 1,.675 1,1.5 0,2.3136.7141,1.7761 1.2307-.9263zm-702.7307-.5737c-.3399-.55-.8165-1-1.059-1s-.441.45-.441,1 .4766,1 1.059,1 .7809-.45.441-1zm72.1464-7.4827c1.1805-1.1095 3.5012-3.2535 5.1571-4.7645 2.177-1.9864 2.8549-3.3432 2.4479-4.8995-.3656-1.3982.0571-2.6057 1.2064-3.4461 2.7733-2.0279 14.6142-12.4857 19.1412-16.9054 2.2544-2.201 5.606-5.3221 7.4479-6.9358s2.8335-3.1059 2.2035-3.3159-3.3742,1.7853-6.0982,4.434c-6.1752,6.0045-14.1289,13.3864-20.6521,19.1672-8.6339,7.6513-19.662,18.32-19.3055,18.6765 .188.188 3.469-2.5345 7.2912-6.0501 4.7633-4.3813 7.1896-6.0123 7.7132-5.1848 .4452.7036.0417,1.7375-.9675,2.4785-2.6784,1.9668-13.2313,12.3255-13.2313,12.9878 0,.5647 3.076-1.9462 7.6464-6.2418zm584.6171-7.8833c.0554-6.9318-.2062-12.9101-.5814-13.2853s-.6821,4.5311-.6821,10.9028c0,12.5997-.4233,14.907-2.5828,14.0783-.7795-.2991-1.4172-.0787-1.4172.4898 0,1.2702 3.1896,2.0995 4.3314,1.1262 .4573-.3898.8767-6.3801.9321-13.3119zm-7.2635,12.366c0-.55-.4766-1-1.059-1s-.7809.45-.441,1 .8165,1 1.059,1 .441-.45.441-1zm27.2922-.0341c.6643-.5687 2.0414-1.6089 3.0602-2.3114 1.3564-.9353 1.9446-2.8238 2.1967-7.0525 .3427-5.7474.3338-5.7682-1.8524-4.3299-2.1794,1.4338-3.8421,5.2286-5.0293,11.478-.6542,3.4434-.3282,3.888 1.6248,2.2159zm12.7927-2.2159c4.7651-4.4227 17.5229-15.7291 22.4151-19.865 2.2-1.8599 4.225-3.6472 4.5-3.9719s3.65-3.3071 7.5-6.6275 9.025-7.9466 11.5-10.2803c2.475-2.3337 6.1875-5.3744 8.25-6.7571s3.75-3.1292 3.75-3.8811 .6484-1.3671 1.441-1.3671c1.5734,0 3.0821-1.8103 2.2238-2.6685-.6701-.6702-3.599,1.3612-8.4975,5.8934-2.0846,1.9287-7.8125,6.9951-12.7287,11.2587s-10.937,9.4989-13.3794,11.6342c-4.7689,4.1691-6.7771,4.781-7.7101,2.3494-.3676-.9579.7508-2.8332 2.9818-5 1.9635-1.9069 3.2548-3.4741 2.8696-3.4825s-.0254-.4879.7996-1.0655c1.162-.8136.9737-.9014-.8358-.3901-2.121.5994-2.2327.4675-1.2148-1.4345 .6166-1.1521 1.7802-2.0946 2.5858-2.0946s1.4648-.8449 1.4648-1.8776c0-2.0143 2.6589-4.7968 3.6432-3.8126 .3272.3272-.1337,1.3235-1.0242,2.2139-1.66,1.66-2.211,4.4883-.869,4.4609 .4125-.008 1.425-.4584 2.25-1 1.2437-.8165 1.2682-1.1342.1432-1.8597-1.4591-.941-1.2692-1.1346 3.6096-3.6796 1.5109-.7882 2.1846-1.4358 1.4971-1.4392s-1.25-.4827-1.25-1.0652 .45-.7809 1-.441c.5951.3678 1-.8229 1-2.941 0-1.9575-.3602-3.559-.8004-3.559s-3.3664,2.2871-6.5027,5.0824-6.2355,4.9047-6.8871,4.6875c-.7765-.2588-.5013-1.0626.7985-2.3324 2.5254-2.4672 10.1998-8.6891 12.0104-9.7372 1.9983-1.1568 1.6955-2.4457-.5435-2.3138-2.3667.1395-14.7186,10.4047-15.6287,12.9883-.3907,1.1092-.1224,2.2073.6569,2.689 1.0531.6508.9662,1.202-.4332,2.7483-3.2005,3.5365-4.0636,15.5032-1.2577,17.4379 .7414.5112.6101,1.0636-.4123,1.7347-1.9313,1.2678-3,1.2733-3,.0153 0-.55-.4766-1-1.059-1s-.7809.45-.441,1 .1415,1-.441,1-1.059.4803-1.059,1.0674c0,.6342.9132.8017 2.25.4128 1.8243-.5307 1.5878-.0621-1.25,2.477-2.7763,2.4841-4.1203,3.0227-6.5,2.6048-2.685-.4714-2.8144-.3845-1.2326.8285 1.854,1.4217 1.4234,4.6045-.6244,4.6155-.6287.003-3.5818,2.2534-6.5626,5s-4.762,4.9939-3.9583,4.9939 3.037-1.4625 4.9628-3.25v1e-005zm31.5117-45.5938c-.3461-.5599-.1419-1.3192.4537-1.6873 1.5375-.9502 2.5295.3514 1.246,1.6348-.7182.7182-1.2775.7354-1.6996.0524v3e-005zm-725.0966,46.8438c-.3399-.55-.8165-1-1.059-1s-.441.45-.441,1 .4766,1 1.059,1 .7809-.45.441-1zm7.2162-6.75c-.2291-1.5125-.4166-.275-.4166,2.75s.1875,4.2625.4166,2.75 .2291-3.9875 0-5.5zm43.1493-19.1931c.1704-14.4802.435-17.0897 1.6135-15.9113 .2635.2635.5183,9.1216.5662,19.6848 .0485,10.6853.4752,18.966.9616,18.6653 1.0717-.6623.8012-60.0211-.2784-61.1007-.4244-.4243-.6906.1007-.5916,1.1667 .5442,5.8601-.2667,20.4382-1.1369,20.4382-.55,0-1-.675-1-1.5s-.45-1.5-1-1.5c-.6418,0-.953,8.3293-.8689,23.25 .0806,14.2948.4049,21.1305.8419,17.7472 .391-3.0265.7926-12.4497.8925-20.9403zm11.0008,4.9431c.0153-9.625-.3561-19.075-.8253-21-.5471-2.2445-.8509,4.7503-.847,19.5 .003,12.9172.3652,22.1232.8253,21 .4506-1.1.8317-9.875.847-19.5zm322.7107,18.9361c1.4798-1.2281 2.0268-14.0811.7949-18.6774l-.6007-2.2414-42.8954.0265c-23.5925.0146-43.566.2838-44.3856.5983s-1.4902,1.1987-1.4902,1.9649c0,2.0939-1.6931,1.6744-2.2786-.5646-.5001-1.9125-1.7697-1.9587-55.1412-2.0082-30.0461-.0278-54.9557-.1002-55.3547-.1609s-7.7638-.057-16.3661.008l-15.6406.1186 .031,10.459 .031,10.459 7.1096.291c3.9103.16 56.0818.4298 115.9366.5995 82.5856.2341 109.1702.0237 110.25-.8724h4e-005zm-380.4833-4.2423c-.7917-.7917-1.0938-.5322-1.0938.9396 0,2.6437 1.3985,4.047 1.8438,1.8502 .1891-.9328-.1484-2.1881-.75-2.7897zm102.51-19.4265c5.029-4.3967 8.2001-7.8327 7.4573-8.0803-.7108-.2369-1.5778-.0218-1.9267.4781s-2.9968,3.0913-5.8844,5.7587c-7.9161,7.3127-6.3002,3.6515 2-4.5317 3.9875-3.9313 6.6997-6.9778 6.027-6.7699-1.2357.3818-23.3882,20.1332-26.7625,23.8619-3.5036,3.8715.0299,1.9493 5.4855-2.984 5.2791-4.7737 7.0639-5.8659 6.9447-4.25-.0304.4125-4.2569,4.575-9.3921,9.25s-9.6174,9.1176-9.9603,9.8725 3.4007-2.3014 8.3192-6.7916 12.88-11.6063 17.6923-15.8135zm551.3962,19.6494c0-2.8445-.3792-3.9443-1.25-3.625-.6875.2521-1.0846,1.0771-.8824,1.8333s.4823,2.275.6224,3.375c.3008,2.3611.3569,2.5 1.01,2.5 .275,0 .5-1.8375.5-4.0833zm-611.6778-6.1667c-.8627-2.8989-.9723-2.5477-1.015,3.25-.043,5.83.0567,6.165.9671,3.25 .6656-2.1311.6821-4.3689.0479-6.5zm21.6778,6.75c1.2918-1.375 2.1236-2.5 1.8486-2.5s-1.5569,1.125-2.8486,2.5-2.1236,2.5-1.8486,2.5 1.5569-1.125 2.8486-2.5zm584.6042-.2292c-.3323-.3323-.5686.2583-.5252,1.3125 .048,1.1649.2849,1.4019.6042.6042 .2889-.7219.2534-1.5844-.0789-1.9167h-4e-005zm23.0835-.5208c2.0921-2.3117 3.8423-7.1955 2.2191-6.1924-.4987.3082-.9589,1.5463-1.0227,2.7514-.0896,1.6918-.2202,1.7923-.5733.441-.5288-2.0237-.8056-2.0907-3.2445-.7854-1.2539.6711-1.6549,1.7361-1.3177,3.5 .5962,3.1189 1.3269,3.1719 3.9392.2854zm46.9365-3.2439c-.0683-2.4716-.4617-4.4966-.8742-4.5s-.7821.3314-.8213.7439-.2768,2.4375-.528,4.5c-.3371,2.7676-.0894,3.75.9455,3.75 1.0134,0 1.3678-1.2462 1.278-4.4939zm-622.1054-6.6923 9.9812-10.1862-10.25,9.2962c-8.5879,7.7888-11.5504,11.0762-9.9812,11.0762 .1478,0 4.7603-4.5838 10.25-10.1862zm593.0146,6.7196c3.8378-3.8378 4.2868-4.7853 1.8188-3.8382-1.3357.5126-1.5532.1373-1.1483-1.9813 .3268-1.7095.004-2.8039-.9339-3.1637-2.2463-.862-2.701-.6908-4.0952,1.5416-1.1019,1.7644-1.0637,2.2729.2439,3.25 1.0438.7799 1.337,1.9575.8977,3.6048-.6042,2.2656-.7087,2.3026-1.4141.5-.6434-1.6442-.7726-1.5194-.832.8035-.0932,3.6476 1.2788,3.4676 5.463-.7167zm-688.9433-3.568c.075-2.1528-.2521-3.6742-.7269-3.3808s-.8631,2.3819-.8631,4.6411c0,5.1572 1.4054,4.0432 1.59-1.2603zm70.91-5.1069c3.1643-3.5094 1.3453-2.1792-5.3217,3.8915-1.963,1.7875-3.9312,3.25-4.3738,3.25s-.8046.4878-.8046,1.084c0,1.33 6.4161-3.6963 10.5-8.2256zm-2.5,7.5825c0-.2425-.45-.441-1-.441s-1,.4766-1,1.059 .45.7809 1,.441 1-.8165 1-1.059zm-63.25-2.711c.9785.3418 1.25-5.0471 1.25-24.8133 0-13.8875-.333-24.917-.74-24.51s-.7912,11.0613-.8537,23.6762c-.098,19.7854-.3398,23.1861-1.7599,24.7554-.9055,1.0006-1.6304,2.4588-1.6109,3.2405 .0219.8784.4994.6179 1.25-.6821 .668-1.1568 1.7771-1.9068 2.4646-1.6667zm665.25-6.8091c.335-5.6411.7345-7.61 1.2103-5.9645 .3907,1.351.9563,2.2104 1.2569,1.9097 .8246-.8246-.5935-6.9061-1.4824-6.3567-.4244.2623-1.0798-.7512-1.4565-2.2521-1.245-4.9605-2.3994-.2624-2.5297,10.2954-.1532,12.4092-.2333,11.6914 1.2513,11.2015 .8121-.268 1.4252-3.3628 1.75-8.8333zm-596.9301,4.9547c1.8866-1.7185 2.5251-2.6602 1.4189-2.0926-1.9685,1.01-6.2617,5.2171-5.3239,5.2171 .2612,0 2.0184-1.406 3.905-3.1245zm314.9301,2.1245c0-.55-.4766-1-1.059-1s-.7809.45-.441,1 .8165,1 1.059,1 .441-.45.441-1zm2.2898-1c-.2877-1.1-.6955-2-.9064-2s-.3834.9-.3834,2 .4079,2 .9064,2 .671-.9.3834-2zm288.5777-1.5c1.2148-2.0589 2.852-3.5 3.9763-3.5 2.507,0 4.3578-2.311 3.5456-4.4275-.5776-1.5053-.8926-1.4485-3.0133.5439-1.3025,1.2237-2.5903,2.0028-2.8618,1.7313s.7961-1.729 2.3722-3.2391l2.8657-2.7456-1.8064-3.7389c-1.6786-3.4744-2.0661-3.7086-5.4769-3.3104-3.5198.4109-3.6448.557-3.0432,3.5573 .3451,1.7209.8979,4.8163 1.2286,6.8788s1.0053,3.75 1.4991,3.75 .2113,1.3277-.6278,2.9503c-2.8792,5.5678-1.7788,6.8387 1.3418,1.5497zm-286.0212-2.2739c.0844-3.7454-.3184-5.0399-1.8694-6.0085-1.6478-1.0291-1.9769-.9783-1.9769.3053 0,.8469.6734,1.7983 1.4964,2.1141 1.0401.3991 1.3711,1.5846 1.0855,3.8874-.3448,2.78.0167,4.4756.9541,4.4756 .1115,0 .2511-2.1482.3102-4.7739zm280.1537-1.4261c0-3.0572-.2996-3.9004-1.1012-3.0988-.6532.6532-.8243,2.3618-.4205,4.2 .9425,4.2914 1.5217,3.8722 1.5217-1.1012zm25.7524-2.1208c-.0149-1.1986.3159-3.6417.7352-5.4292 .9543-4.0683-.4689-4.2464-3.9947-.5-1.9329,2.0539-2.4291,3.3828-1.9603,5.25 .3453,1.375.637,3.5483.6484,4.8296l.0206,2.3296 2.289-2.1504c1.2589-1.1827 2.2767-3.131 2.2618-4.3296h4e-005zm-630.1455-1.4292c3.9072-3.7125 9.3066-8.7179 11.9986-11.123 10.6631-9.5271 25.5085-24.3463 24.9494-24.9053-.3254-.3254-2.2709.987-4.3233,2.9164l-12.7316,11.9972c-4.95,4.669-11.9003,11.1612-15.4451,14.427-9.1482,8.4282-13.0549,12.2899-13.0549,12.9045 0,1.4761 2.1291-.0617 8.6069-6.2167zm659.3931,4.8318c0-1.055.2731-2.63.607-3.5 .8137-2.1204-.8692-1.9998-3.663.2625-2.668,2.1604-2.0727,5.1558 1.0246,5.1558 1.3358,0 2.0314-.6568 2.0314-1.9182zm21.2502.0578c.7437-.7336 1.227-26.9958.5101-27.7127-.2053-.2053-1.8124.9412-3.5713,2.5478-3.1944,2.9176-3.1978,2.9316-2.9435,12.0028 .198,7.0631-.0682,9.2828-1.1976,9.9862-2.4608,1.5325-3.0478.1801-3.0478-7.0226 0-7.2436-.5921-8.1541-3.3331-5.1254-1.6527,1.8262-2.1304,3.7388-3.0909,12.3764l-.5218,4.6921 8.2229-.5023c4.5226-.2762 8.5605-.8352 8.9731-1.2422zm-753.6431-.6107c-.3619-2.466-1.6071-3.005-1.6071-.6956 0,1.1917.4102,2.1667.9115,2.1667s.8144-.662.6956-1.4711zm45.0488-3.798c-.2739-.677-.4814.119-.461,1.769s.2445,2.2039.498,1.231 .2369-2.323-.0371-3h5e-005zm382.5941,3.3492 6.75-.0802v-8c0-5.6912-.3608-8.0228-1.25-8.079-1-.0632-1-.1798 0-.5833 3.735-1.5071-1.3918-1.8261-27.5001-1.7112-35.9654.1583-33.0799-.0279-31.0482,2.0037 1.2989,1.2989 3.9337,1.6546 12.9643,1.75l11.334.1198-.3477,6.6875c-.1912,3.6781-.0539,7.1628.3051,7.7438 .4193.6784 4.4788.9083 11.3477.6427 5.8822-.2275 13.7324-.4496 17.4448-.4938v3e-005zm-424.5607-4.8302c-.2515-.9625-.4573-.175-.4573,1.75s.2058,2.7125.4573,1.75 .2515-2.5375 0-3.5zm92.8007-7.6331c11.1042-9.7172 19.1042-17.5775 17.9107-17.598-.6046-.0104-4.4296,3.1235-8.5,6.9641s-11.081,10.2532-15.5793,14.25-8.2107,7.6511-8.25,8.1205c-.0715.8547 1.3822-.3287 14.4186-11.7367zm558.51,9.8241c0-.2425-.45-.441-1-.441s-1,.4766-1,1.059 .45.7809 1,.441 1-.8165 1-1.059zm-634.6786-.6949c3.1226-3.3222 3.7349-4.9102.8904-2.309-1.7665,1.6154-3.2118,3.0779-3.2118,3.25 0,.722 1.2252.2253 2.3214-.941zm60.4534-12.5072 14.2748-13.7389 .2252-80.8942 .2252-80.8942-10.75-.2711-10.75-.2711v2.4368c0,1.6288-.8289,2.8145-2.5,3.5759-1.375.6265-2.5,1.5169-2.5,1.9786s-.6546.8395-1.4547.8395c-.8557,0-1.6932,1.3382-2.0339,3.25-.3186,1.7875-.4515,24.4-.2953,50.25l.2839,47 6.1939-.3152c9.647-.4909 10.1021.0189 9.8532,11.0353-.1153,5.1039.1534,10.2927.5971,11.5307 .6966,1.9432-.382,3.4105-7.8947,10.7396l-8.7016,8.4889-.0593,19.5104c-.0326,10.7307.1816,19.5054.476,19.4993s6.959-6.1936 14.8101-13.75zm4.9432,7.905c1.3218-1.2958 2.2078-2.5515 1.969-2.7903-.6208-.6208-8.687,6.7754-8.687,7.9654 0,.98 2.0523-.601 6.718-5.1751zm-77.9181-17.7655c-.008-17.3205.2264-20.5476 1.5951-21.9163 1.4293-1.4293 1.605-6.9227 1.605-50.1733 0-45.0828.1256-48.6637 1.75-49.8968 1.6667-1.2652 1.6667-1.33 0-1.3603-2.3818-.0433-2.2354-3.2826.25-5.5318 1.9412-1.7568 2-1.7466 2,.345 0,1.235.6312,2.155 1.4786,2.155 1.2152,0 1.2752-.4464.3366-2.5063-.6281-1.3785-1.6309-2.4501-2.2286-2.3815-3.3994.3904-3.4897-.0476-3.4375-16.6783 .0286-9.1114-.2183-16.8364-.5486-17.1667s-.6005,2.3995-.6005,6.0661c0,9.7777-1.6955,8.1445-1.9157-1.8453-.1888-8.5664.4649-11.8354 1.902-9.5103 1.2783,2.0684 1.5412-1.8765.9649-14.4778-.3019-6.6-.6394-10.7625-.75-9.25-.1855,2.5366-2.2011,4.085-2.2011,1.691 0-.5825-.4054-.8085-.9008-.5023-.511.3158-.7289,10.5095-.5035,23.559 .2381,13.7836.025,23.0023-.5318,23.0023-1.6744,0-2.1992-3.8296-2.0211-14.7467 .0965-5.9143.0396-11.2033-.1266-11.7533-.8042-2.6627-1.3566,28.678-.8813,50 .5942,26.6567 1.0609,24.9589 1.0502-3.8203-.005-14.2921.2843-18.7224 1.2039-18.4135 1.2043.4046 1.3204,5.5559.8499,37.7338-.1956,13.3775.6279,35.1003 1.3583,35.8307 .2765.2765.5027-9.4724.5027-21.664s.3375-22.1667.75-22.1667 .6757,14.7375.5849,32.75c-.237,47.0117-.486,58.1431-1.2244,54.7501-.4523-2.0782-.9042-2.601-1.4707-1.7014-.6299,1.0002-1.142,1.0295-2.2288.1276-1.1114-.9223-1.411-.842-1.411.3781 0,.852.7728,1.698 1.7173,1.8799 1.5758.3035 1.6986,2.3904 1.4897,25.3233-.1402,15.3904.124,24.4527.6876,23.5874 .5034-.7728.9108-10.5452.9053-21.7164zm.2001-119.3194c0-1.6825.45-3.059 1-3.059s1,1.0984 1,2.441-.45,2.7191-1,3.059c-.5834.3606-1-.6563-1-2.441zm0-18.059c0-8.4516.3874-14 .9775-14s.9698,5.5352.9581,14c-.0114,8.2455-.4132,14-.9775,14-.5652,0-.9581-5.7411-.9581-14zm.1169-41.5c.0775-3.575.5329-6.5 1.012-6.5s.8711,2.925.8711,6.5c0,3.7182-.4331,6.5-1.012,6.5-.5934,0-.9537-2.6889-.8711-6.5zm.6143-9.5802c.3536-1.3522.8069-1.8055 1.0566-1.0566 .2405.7214-.0382,1.7872-.6193,2.3683-.7421.7421-.8722.3516-.4372-1.3117zm381.2622,205.5865c1.6536-1.5843 3.0066-3.2463 3.0066-3.6934s-3.4301-.8129-7.6224-.8129c-6.7552,0-7.4768.1755-6.3424,1.5424 1.7373,2.0933.0959,3.5953-4.1504,3.7983-2.9415.1406-3.69-.3913-6.3593-4.5189-1.664-2.573-4.1954-5.3711-5.6254-6.2179s-4.0211-2.9933-5.7581-4.7699c-2.6743-2.7353-3.0633-3.7362-2.5387-6.5321 .3407-1.816.3148-3.3018-.0576-3.3018-1.3039,0-5.0623,2.2887-6.891,4.1962-1.7767,1.8533-1.8998,1.8575-3.3052.1144-1.3495-1.6739-1.3787-1.6432-.3866.4072 .9102,1.8811.5416,2.9141-2.4282,6.8048-4.4908,5.8832-5.5249,6.8917-9.6399,9.4003l-3.3948,2.0696 4.5.1097c2.475.0603 5.7375.0281 7.25-.0716s2.75.2727 2.75.8276c0,1.3739-3.7398,1.6989-15.25,1.3254-9.8186-.3186-11.8587-1.2657-7.25-3.3655 3.4001-1.5492 3.145-2.818-.5667-2.818-1.7291,0-4.494,1.0886-6.339,2.4959-1.7998,1.3727-4.8072,3.0602-6.6833,3.75-3.0327,1.115-1.5255,1.3096 13.589,1.7541 9.35.275 28.1345.4745 41.7434.4434l24.7434-.0566 3.0066-2.8805v-2e-005zm-25.9934.4937c0-.55 1.0984-1 2.441-1s2.7191.45 3.059,1c.3606.5834-.6563,1-2.441,1-1.6825,0-3.059-.45-3.059-1zm-7-1c-.825-.5332-2.7825-.9763-4.35-.9847-1.9027-.0102-3.9966-1.1619-6.2996-3.4649-2.0108-2.0108-4.0545-3.2174-4.9-2.893-2.2183.8512-1.738-.3098 1.2894-3.1169 2.043-1.8943 3.8233-2.5405 7-2.5405 2.3431,0 4.2602.45 4.2602,1s.635,1 1.4111,1c1.8484,0 6.5889,5.6671 6.5889,7.8767 0,1.647-1.7904,4.1402-2.95,4.108-.3025-.008-1.225-.4515-2.05-.9847zm2.9847-3.75c-.009-.9987-.3357-1.3207-.7616-.75-.4105.55-1.1536,1.3375-1.6514,1.75s-.155.75.7616.75c.9265,0 1.6599-.7772 1.6514-1.75zm-5.4258-4.7818c-2.5265-1.911-4.1544-1.8907-2.5589.0318 .6847.825 1.9773,1.4857 2.8724,1.4682 1.3673-.0267 1.3172-.2666-.3136-1.5zm404.1034,9.2818c-.2774-.6875-.5044-.125-.5044,1.25s.227,1.9375.5044,1.25 .2774-1.8125 0-2.5zm5.2631,2c-.5152-3.9671.2078-7.75 1.481-7.75 .9141,0 1.2233.7001.8834,2-.2924,1.1182-.0307,2 .5936,2 .7066,0 1.1364-2.4787 1.1704-6.75 .087-10.9191.4563-18.6436.9682-20.25 .2802-.8791-.1429-1.5-1.022-1.5-1.1634,0-1.5066,1.3464-1.5293,6-.063,12.8794-.4782,17.8924-1.4038,16.95-.5132-.5225-1.1126-2.75-1.3319-4.95-.2896-2.9055-.4875-2.0846-.7234,3-.1785,3.85-.4121,8.2375-.519,9.75s.2082,2.75.7004,2.75 .8217-.5625.7324-1.25zm-763.2811-5.2475c.142-2.4446-.1698-4.7093-.693-5.0327-.5594-.3457-.9513,1.7709-.9513,5.1378 0,6.5987 1.2595,6.5182 1.6443-.1051zm286.8551,2.2048c1.9254-1.5359 3.5007-3.1464 3.5007-3.5787 0-1.0052-123.4766-1.3658-127.5506-.3725-3.4975.8528-8.8558,4.7774-8.1285,5.9537 .2687.4346 29.3311.7901 64.5832.7901h64.0946l3.5006-2.7926zm13.0007,2.2926c.3596-.5818-.6366-1-2.382-1-4.0023,0-4.9819-1.8821-2.1664-4.162 1.2485-1.0109 1.8702-1.8381 1.3816-1.8381-1.6895,0-9.3333,6.1423-9.3333,7.5 0,.9647 11.8887.4891 12.5-.5zm-279.5-2.5911c0-.1904-.675-.0871-1.5.2294s-1.5,1.0326-1.5,1.5911c0,.5853.6354.4881 1.5-.2294 .825-.6847 1.5-1.4007 1.5-1.5911zm25.2895-.4099c-.7196-2.7515-1.2895-2.504-1.2895.56 0,1.4075.4078,2.307.9061,1.999s.6709-1.4596.3834-2.559zm260.0633-4.6993c3.612-5.3214 3.7407-5.7581 2.0589-6.9879-2.703-1.9765-4.2132-1.5998-5.7656,1.4382-2.7314,5.3453-3.1734,11.2788-.8371,11.2379 .38-.007 2.4248-2.5664 4.5438-5.6882zm395.5705,3.1115c1.6922-1.4239 3.0767-3.4867 3.0767-4.584 0-1.8125-.3509-1.7172-3.8333,1.0409-2.1083,1.6698-3.8333,3.7326-3.8333,4.584 0,2.1761 1.0497,1.938 4.5899-1.0409zm-698.3191-1.1403c-.3323-.3323-.5686.2583-.5252,1.3125 .048,1.1649.2849,1.4019.6042.6042 .2889-.7219.2534-1.5844-.0789-1.9167h-4e-005zm25.3958,1.2292c.6847-.825 1.0199-1.5.7449-1.5s-1.0602.675-1.7449,1.5-1.0199,1.5-.7449,1.5 1.0602-.675 1.7449-1.5zm680-.059c0-.2426-.45-.441-1-.441s-1,.4766-1,1.059 .45.7809 1,.441 1-.8165 1-1.059v2e-005zm-609.1045-9.191c.2408-.1375.0253-.2429-.4789-.2343-1.2757.0218-10.4167,8.3405-10.4167,9.4795 0,.5113 2.353-1.3035 5.2289-4.0328s5.4259-5.0749 5.6667-5.2124zm228.2397,8.2005c3.3531-1.5441 3.3544-1.5473.3648-.9292-1.65.3411-3.4275,1.0384-3.95,1.5495-1.3707,1.3408-.2536,1.1475 3.5852-.6202zm-196.9043-22.6998c-.148-12.7879-.373-53.1758-.5-89.7507l-.2309-66.5-16.2422-.1159-16.2422-.1159 .003,78.2556c.002,43.0406-.2749,78.9802-.6148,79.8659-1.1622,3.0285 1.1582,1.6108 6.9611-4.2533 5.1251-5.1792 6.2627-5.8636 9.7457-5.8636h3.9432l-.6738,14.2599c-.3706,7.843-.3969,14.9816-.0584,15.8636 .4809,1.2533 2.097,1.6039 7.3968,1.6044l6.7814.0008-.2691-23.2508h.0002zm181.7691,21.6902c0-.2425-.45-.441-1-.441s-1,.4766-1,1.059 .45.7809 1,.441 1-.8165 1-1.059zm379,.059c0-.825-.45-1.5-1-1.5s-1,.675-1,1.5 .45,1.5 1,1.5 1-.675 1-1.5zm-381-2.7405c0-.4177.7875-1.589 1.75-2.6028 2.0727-2.1833 5.4148-8.1566 4.5637-8.1566-.3263,0-1.2287.7875-2.0053,1.75-1.3014,1.6128-1.3635,1.5737-.7929-.5 .5936-2.1572.3585-2.2524-5.6982-2.3089-39.5448-.3689-113.0859.009-114.9188.5911-2.3398.7426-8.8987,5.51-8.8984,6.4678 9e-005,.275 25.7762.4864 57.2802.4698l57.28-.0302 2.2198-2.2198c2.3853-2.3853 3.2704-2.5597 8.0948-1.5948 3.7449.749 3.8504,1.5268.7725,5.6917-3.8965,5.2725-4.195,6.0421-1.7522,4.5166 1.1576-.7229 2.1046-1.6561 2.1046-2.0738v-2e-005zm-292.4371-.9454 2.9371-3.186-3.1947,2.436c-1.7571,1.3398-3.2196,2.7735-3.25,3.186-.0927,1.2569.452.8786 3.5076-2.436zm4.2841,1.3187c1.1842-1.027 2.153-2.173 2.153-2.5467 0-.9193-4.9288,2.7154-4.9686,3.664-.0473,1.1292.4553.9297 2.8156-1.1173zm6.1241-.0936c.8091-.5117 1.2584-1.143.9984-1.4029s-1.3454.1656-2.4122.9456c-2.1334,1.56-.9402,1.946 1.4137.4573zm269.7042-.381c.4217-.4217.2008-1.1166-.491-1.5441s-25.6537-.6833-55.471-.5683c-62.8494.2423-59.7133.1665-59.7133,1.4434 0,.6321 15.068,1.0832 41.75,1.25 60.4264.3777 73.0659.2784 73.9253-.581v4e-005zm37.8247-.6581c1.1423-1.2623 1.3576-2 .5836-2-1.2448,0-4.0836,2.3834-4.0836,3.4286 0,1.2076 1.767.4864 3.5-1.4286zm317.1042-.7292c-.3323-.3323-.5686.2583-.5252,1.3125 .048,1.1649.2849,1.4019.6042.6042 .2889-.7219.2534-1.5844-.0789-1.9167h-4e-005zm-322.6563.7826c1.1478-.7262.932-1.0455-1.0417-1.5408-4.0439-1.015-14.2003-.1577-14.6605,1.2374-.4968,1.506 13.3775,1.7741 15.7022.3034zm-284.7281-3.0974c.2457-1.6742.0718-3.2758-.3865-3.559s-.8333,1.0866-.8333,3.044c0,4.3611.617,4.6216 1.2198.515zm123.0302,2.0674c7.9188-.0172 10.751-.3526 10.7537-1.2734 .004-1.2824 9.7612-9.5601 13.6888-11.6129 2.3615-1.2343 141.934-1.7783 147.8893-.5764 2.5689.5184 3.609.0947 6.25-2.5463 1.7426-1.7426 3.1683-3.7665 3.1683-4.4977 0-.8106.7365-1.1369 1.8871-.836 1.0379.2714 2.1895.004 2.559-.5936 .4357-.705-.579-1.0871-2.8871-1.0871s-3.4716.4373-3.309,1.25c.258,1.29-5.4724,1.3224-154.25.8743-28.875-.087-53.0625-.1505-53.75-.1412-.9117.0124-1.25,2.6061-1.25,9.5843 0,9.1123.0951,9.5372 2,8.9326 1.1473-.3641 2-.1797 2,.4326 0,.5871-.4766,1.0674-1.059,1.0674s-.8274.3748-.5443.8328 4.0221.6935 8.309.5234 12.6318-.3199 18.5443-.3328zm428.7575-.528c1.1793-.7289 1.0872-19.3188-.0994-20.0521-36.3447-4.2768-81.4767,5.053-116.4646-1.5346-.5061-.8189-.8913-.8022-1.4252.0616-.5408.875-9.3762,1.1693-33.875,1.1281-18.2288-.0306-33.1433.1393-33.1433.3775s1.0125,1.5358 2.25,2.8834 2.8797,3.2211 3.6494,4.1632c1.2451,1.524 2.8582,1.6408 14.624,1.0593 15.1031-.7464 14.6111-1.0373 13.7315,8.1175l-.4801,4.9968c50.3687-1.2731 100.8892,1.1658 151.2328-1.2008zm78.2465.2546c.3316-.9852.7591-.9708 2.018.0682 .8785.725 3.0545,1.175 4.8356,1 2.8232-.2774 3.4191-.863 4.6487-4.5682 1.1369-3.4261 1.8751-4.25 3.808-4.25 1.8086,0 2.5398.6755 2.9762,2.75 1.3106,6.2291 4.1675,7.8124 7.8517,4.3513 2.0044-1.883 2.1504-2.6927 1.5433-8.5581-.3688-3.5631-.4527-7.6179-.1864-9.0107l.4841-2.5324h-15.9257-15.9257l-.078,10.25c-.0429,5.6375.1227,10.5875.3681,11 .7146,1.2012 3.1227.8651 3.5822-.5h-2e-005zm15.1812-.8548c-.8726-1.4119-2.4352-1.044-2.4352.5734 0,.8921.5866,1.2435 1.4943.8952 .8218-.3154 1.2453-.9762.941-1.4686zm17.3155.4969c1.4771-1.4771 1.4577-1.5788-.2386-1.25-1.0155.1968-2.0337.9204-2.2626,1.6079-.5756,1.7288.5798,1.5635 2.5012-.3579zm-266.1465-2.1213c-.3323-.3323-.5686.2583-.5252,1.3125 .048,1.1649.2849,1.4019.6042.6042 .2889-.7219.2534-1.5844-.0789-1.9167h-4e-005zm-442.5006-2.5672c-.8048-.8048-1.0954-.305-1.0732,1.8464 .0267,2.5861.1628,2.7222 1.1036,1.1036 .7692-1.3233.7605-2.1591-.0304-2.95h-1e-005zm29.8964,1.2926c0-1.3777-2.7546-.078-3.4002,1.6043-.4451,1.1598-.1636,1.2364 1.4227.3875 1.0876-.5821 1.9775-1.4784 1.9775-1.9918zm105.6623-.2462c-.2774-.6875-.5044-.125-.5044,1.25s.227,1.9375.5044,1.25 .2774-1.8125 0-2.5zm-117.1623,1.25c.3399-.55.168-1-.382-1s-1.2781.45-1.618,1-.168,1 .382,1 1.2781-.45 1.618-1zm319.6511-1.9973c4.4013-4.4013 2.5373-5.7074-7.4043-5.1885-7.1365.3725-7.9518.6407-10.25,3.3719-1.3732,1.632-2.4968,3.3827-2.4968,3.8905s3.8596.9233 8.5769.9233c8.1948,0 8.7104-.1335 11.5742-2.9973zm28.5914,1.2696c.3835-1.1504-3.5015-2.8468-4.4188-1.9295-.7428.7428 1.9804,3.6322 3.1137,3.3038 .5156-.1494 1.1029-.7679 1.3051-1.3743zm73.2169-1.3796c1.8784-1.5682 3.1032-3.1634 2.7218-3.5449s-5.2564-.8863-10.8332-1.1219c-8.3778-.3539-10.0467-.1862-9.605.9648 .294.7662-.0565,2.2014-.779,3.1894-1.1483,1.5703-1.9836,1.6744-6.6388.8269-2.9289-.5332-4.3127-1.0229-3.0752-1.0882 2.5034-.1322 2.8561-1.1127 1.05-2.9188-1.884-1.884-6.1751-1.4303-7.5679.8-1.9061,3.0521-5.6928,2.4726-9.6407-1.4753-2.4532-2.4532-3.4149-4.2618-3.2698-6.1496 .4587-5.9672 7.1476-5.3042 11.5573,1.1455 1.6064,2.3495 3.1603,3.4794 4.7852,3.4794 2.0353,0 2.2529-.2865 1.4117-1.8584-.547-1.0221-2.0254-2.5566-3.2852-3.41-5.19-3.5157-8.7906-7.6834-8.7906-10.1752 0-1.406-.268-2.5564-.5956-2.5564-1.5846,0-6.4132,4.3362-6.4787,5.8181-.109,2.4663-8.0723,13.4467-10.7031,14.7583-3.8864,1.9376-3.5568,2.281 1.69,1.7611 3.2959-.3266 5.0874-.1226 5.0874.5792 0,.6874-2.9233,1.0833-8,1.0833-7.3279,0-9.1063.5604-7.3504,2.3163 .3573.3573 15.1047.5997 32.7721.5387l32.1224-.111 3.4154-2.8513zm-436.3553-1.6219c-.3323-.3323-.5686.2583-.5252,1.3125 .048,1.1649.2849,1.4019.6042.6042 .2889-.7219.2534-1.5844-.0789-1.9167h-4e-005zm98.3958,1.6702c0-.5825-.45-.7809-1-.441s-1,.8165-1,1.059 .45.441 1,.441 1-.4766 1-1.059zm-80.8849-5.691c3.2326-2.6125 5.8792-5.0282 5.8812-5.3683s-1.9088-.88-4.2463-1.1998c-3.229-.4418-4.6653-.1716-5.9786,1.1247-1.6548,1.6333-3.4724,10.1935-2.1644,10.1935 .3468,0 3.2754-2.1375 6.508-4.75zm85.4479,1.564 2.9371-3.186-3.1947,2.436c-1.7571,1.3398-3.2196,2.7735-3.25,3.186-.0927,1.2569.452.8786 3.5076-2.436zm-77.5629,1.186c0-.55-.45-1-1-1s-1,.45-1,1 .45,1 1,1 1-.45 1-1zm16.6559-3.269c-.2739-.677-.4814.119-.461,1.769s.2445,2.2039.498,1.231 .2369-2.323-.0371-3h5e-005zm321.5449,3.1615c1.6598-.8883 1.7952-1.2811.6843-1.9847-1.7395-1.1017-5.8851-1.1776-5.8851-.1078 0,.7995 2.0747,3.2 2.7657,3.2 .2012,0 1.297-.4984 2.4351-1.1075zm51.7992-.4515c0-.2425-.45-.441-1-.441s-1,.4766-1,1.059 .45.7809 1,.441 1-.8165 1-1.059zm-418-1.882c0-1.3425-.45-2.7191-1-3.059-.5834-.3606-1,.6563-1,2.441 0,1.6825.45,3.059 1,3.059s1-1.0984 1-2.441zm402,1.382c0-.5825-.45-.7809-1-.441s-1,.8165-1,1.059 .45.441 1,.441 1-.4766 1-1.059zm360.6042-1.6702c-.3323-.3323-.5686.2583-.5252,1.3125 .048,1.1649.2849,1.4019.6042.6042 .2889-.7219.2534-1.5844-.0789-1.9167h-4e-005zm-701.6042.7292c0-.55-.45-1-1-1s-1,.45-1,1 .45,1 1,1 1-.45 1-1zm74.2099-5.0233c-.6288-4.2845-1.2124-3.6625-1.1946,1.2733 .009,2.5492.3387,3.7405.8234,2.9767 .4444-.7003.6115-2.6128.3712-4.25zm572.5401,4.393c3.3347-.8937 2.8835-3.2127-.5-2.5698-2.3572.4479-2.5727.3078-1.5087-.9807 .6827-.8268.9752-1.7694.6499-2.0947s-.2652-1.1194.1337-1.7648c.5378-.8702.9472-.8228 1.5848.1835 .6762,1.0672.8629.9959.875-.3342 .0188-2.0731-1.8322-3.3615-3.0622-2.1315-1.2486,1.2486-2.4006,10.3257-1.3084,10.3088 .4873-.008 1.8984-.285 3.1359-.6166zm-657.7653-3.1787c-.0327-3.6102-1.6588-4.2399-1.7921-.694-.0787,2.0945.269,3.3358.8363,2.9852 .5341-.3301.9642-1.3611.9558-2.2912zm350.312.3404c-1.7293-2.3759-3.2967-3.2604-3.2967-1.8602 0,1.0337 3.1983,4.3287 4.2017,4.3287 .4904,0 .0832-1.1109-.905-2.4686zm358.7033.9096c0-.8575-.45-1.2809-1-.941s-1,1.0415-1,1.559 .45.941 1,.941 1-.7016 1-1.559zm-790.5-.441c1.7102-.7349 1.7464-.8696.25-.9297-1.7353-.0697-2.5676-2.0703-.8613-2.0703 1.3467,0 2.2837-6.5068 1.3954-9.6901-.6821-2.4444-.8491-2.0945-1.2841,2.6901-.275,3.025-.95,5.4043-1.5,5.2873-1.2203-.2595-2.4,2.7411-1.7546,4.4627 .533,1.4217.9616,1.4502 3.7546.25zm795.5,0c0-.55-.45-1-1-1s-1,.45-1,1 .45,1 1,1 1-.45 1-1zm-788.5-1c.3399-.55-.0835-1-.941-1s-1.559.45-1.559,1 .4234,1 .941,1 1.2191-.45 1.559-1zm405.8635-.2209c-.245-.3965.6826-1.7018 2.0614-2.9007s2.3189-2.484 2.0891-2.8558-5.5019-.5766-11.7159-.455c-10.1086.1978-11.3366.4164-11.6638,2.0767-.2011,1.0206-.8213,2.1429-1.3781,2.4939-2.538,1.5999.8664,2.3618 10.5528,2.3618 5.775,0 10.2995-.3244 10.0544-.7209zm339.6365-4.9108c2.475-1.9975 5.7621-4.8113 7.3047-6.2529 2.6339-2.4616 2.71-2.7563 1.25-4.8407-2.012-2.8725-1.9735-8.1935.1079-14.9098 1.8531-5.9797 3.8523-8.8098 5.1722-7.322 2.0002,2.2549 4.3838,14.6163 3.8037,19.7261-.8339,7.3447-1.6798,13.0175-2.1571,14.4658-.2238.6791.483,1.711 1.5707,2.2931 3.3332,1.7839 3.4365.5537 2.8168-33.5279-.2768-15.2229 2.1105-20.7092 7.4805-17.1906 4.1555,2.7228 5.7358,11.4923 3.6384,20.1906-.5305,2.2-1.2029,6.7-1.4944,10s-.7423,6.961-1.002,8.1356c-.2796,1.2647.214,2.692 1.2102,3.5 1.3153,1.0668 1.5095,1.0772.8902.0479-.4949-.8226-.098-1.8241 1.058-2.6694 1.7489-1.2788 1.8589-3.8335 2.0094-46.6835 .0876-24.9319.2768-61.5307.4204-81.3307s-.0221-36-.3682-36-1.6603,1.3971-2.9204,3.1047-3.8516,4.4076-5.7589,6-4.6073,4.1479-6,5.6788c-2.4601,2.7042-2.8572,2.7896-13.9494,3l-11.4173.2165-.3087,18.5c-.1698,10.175-.5347,29.8962-.811,43.8249l-.5023,25.3249 4.7282-3.9814c2.6005-2.1898 6.0499-5.3735 7.6653-7.0749 2.7634-2.9106 3.3713-3.0935 10.2814-3.0935 5.6333,0 7.4795.3524 7.9248,1.5127 .3193.832.1684,2.0695-.3353,2.75-1.3029,1.7602-1.588,15.4461-.3379,16.2187 .5665.3501 1.03,1.0037 1.03,1.4524 0,1.0406-7.4478,8.6526-12.295,12.5662-2.0437,1.65-7.2677,6.3953-11.6089,10.5452l-7.8932,7.5452 .1679,15.9548c.1696,16.1191.8684,20.1194 3.0319,17.3563 .6036-.7708 3.1224-3.0358 5.5974-5.0332zm37,1.5285c0-.8643-3.6511,1.4775-5.0822,3.2596-1.0059,1.2527-.4737,1.1035 1.8322-.5135 1.7875-1.2535 3.25-2.4892 3.25-2.7461zm-644.5,2.6033c.3399-.55-.0835-1-.941-1s-1.559.45-1.559,1 .4234,1 .941,1 1.2191-.45 1.559-1zm-110.7855-8.7679c-.2282-1.5027-.4103-.0321-.4047,3.2679s.1923,4.5294.4149,2.7321 .218-4.4974-.0102-6zm-2.7452,1.7679c0-1.925-.4362-4.175-.9694-5-.6803-1.0526-.9694.4386-.9694,5s.2891,6.0526.9694,5c.5332-.825.9694-3.075.9694-5zm356.3204,3c.5765-2.2047-.0215-2.4659-2.2898-1-1.09.7044-1.1422.9736-.191.9847 .72.008 1.0309.4653.691,1.0153s-.194,1 .3244,1 1.1777-.9 1.4654-2zm-306.4064-6.75c-.4861-16.5159.1724-40.25 1.1167-40.25 .6306,0 1,6.8333 1,18.5 0,10.175.3959,18.5.8799,18.5 .7901,0 .9437-9.7002 1.0809-68.25 .0257-10.9762.4001-16.75 1.0862-16.75s.9964,4.7453.9004,13.75c-.0806,7.5625.0108,13.9478.203,14.1896s1.2496-.082 2.3496-.7196 1.4375-1.1729.75-1.1896c-.9344-.0227-1.2075-2.8712-1.0819-11.2804 .1437-9.6186.2644-10.3799.8319-5.25l.6638,6 .3224-5.5c.344-5.8696.3759-15.2081.0633-18.5-.19-2-.19-2-1.0494,0-.6284,1.4625-.9082.4546-1.0408-3.75-.3567-11.308-.2426-12.75 1.0095-12.75 .5327,0 .7271.6295.4318,1.3988s-.1234,1.6543.3818,1.9666 .8734-.6547.8182-2.1488c-.0592-1.6013-.6136-2.614-1.3504-2.4666-1.3329.2666-1.5876-4.3754-1.2615-23 .1124-6.4178-.1983-9.75-.9089-9.75-.7384,0-1.0844,6.7153-1.0949,21.25-.0102,14.0894-.342,20.7445-.9847,19.75-.5332-.825-.9763-3.4875-.9847-5.9167s-.3368-4.0952-.7297-3.7022-.798,12.5054-.9002,26.9167-.2307,31.0398-.2856,36.9522c-.0581,6.2541-.5079,10.75-1.0756,10.75-.6252,0-.8947-19.4048-.75-54.0002 .1242-29.7001-.1117-54.0001-.5242-54s-.7531,1.9127-.757,4.2502-.2565,24.725-.5615,49.75-.5425,46.175-.5279,47c.0147.825-.004,7.35-.0423,14.5s-.0287,13.675.0205,14.5 .0763,7.0125.0602,13.75c-.0195,8.1553.3332,12.25 1.0553,12.25 .692,0 1.0127-2.4434.886-6.75h-3e-005zm7.9104-86.5c-.2311-.6875-.1075-2.6.2747-4.25 .6376-2.7527.7047-2.6496.8132,1.25 .118,4.2389-.2917,5.3686-1.0879,3zm-3.1065-3.5c-.9569-1.666-.7106-14.25.279-14.25 .6198,0 1.0338,3.0032 1.0338,7.5 0,7.0505-.2884,8.5334-1.3128,6.75zm352.8128,95.75c-2.7491-1.1813-4.328-1.1813-2.5,0 .825.5332 2.175.9446 3,.9144 .9891-.0362.8187-.3477-.5-.9144zm-272.8377-4.25c-.2774-.6875-.5044-.125-.5044,1.25s.227,1.9375.5044,1.25 .2774-1.8125 0-2.5zm184.5877,1.5877c-.6875-.2774-1.8125-.2774-2.5,0s-.125.5044 1.25.5044 1.9375-.227 1.25-.5044zm52-.0435c-1.2375-.2384-3.2625-.2384-4.5,0s-.225.4334 2.25.4334 3.4875-.195 2.25-.4334zm12-.0177c-1.7875-.2218-4.7125-.2218-6.5,0s-.325.4033 3.25.4033 5.0375-.1815 3.25-.4033zm29,.0611c-.6875-.2774-1.8125-.2774-2.5,0s-.125.5044 1.25.5044 1.9375-.227 1.25-.5044zm5.9375-.0208c-.7219-.2889-1.5844-.2534-1.9167.0789s.2583.5686 1.3125.5252c1.1649-.048 1.4019-.2849.6042-.6042v4e-005zm16.0625.0208c-.6875-.2774-1.8125-.2774-2.5,0s-.125.5044 1.25.5044 1.9375-.227 1.25-.5044zm268.25-.3376c-.3399-.55-1.154-.9931-1.809-.9847-.7156.009-.5923.4022.309.9847 1.9211,1.2415 2.2673,1.2415 1.5,0zm-657.445-11.5-.445-3-.555,2.9251c-.3053,1.6088-.3476,4.9838-.094,7.5l.461,4.5749 .539-4.5c.2964-2.475.3388-5.85.094-7.5zm532.1615,10.7616c-4.8543-.4525-17.1759.298-4.7165.3734 5.5-.003 7.6224-.1705 4.7165-.3732v-.0003zm15.0473.0345c-1.2299-.2374-3.4799-.2435-5-.0136s-.5138.4241 2.2363.4316 3.9937-.1806 2.7637-.4179v-5e-005zm81.9237.0208c-.7219-.2889-1.5844-.2534-1.9167.0789s.2583.5686 1.3125.5252c1.1649-.048 1.4019-.2849.6042-.6042v4e-005zm6.5625-.006c-.9625-.2515-2.5375-.2515-3.5,0s-.175.4573 1.75.4573 2.7125-.2058 1.75-.4573zm81.8084-1.1779c2.2834-1.7961 2.2944-3.1672.025-3.1013-1.4858.0431-4.9929,4.9686-3.5377,4.9686 .6264,0 2.2072-.8403 3.5128-1.8673h-3e-005zm-623.9024-3.4018c-.2739-.677-.4814.119-.461,1.769s.2445,2.2039.498,1.231 .2369-2.323-.0371-3h5e-005zm5.313-7.7313c.4754,0 1.0914.5625 1.3688,1.25s.4725-.775.4335-3.25c-.0434-2.7566-.2323-3.4346-.4875-1.75-.761,5.0234-2.2814,2.8429-2.4406-3.5-.1196-4.7672-.3203-3.7589-.846,4.25-.3791,5.775-.421,11.175-.0932,12s.7321-.8625.8983-3.75 .6912-5.25 1.1667-5.25h1e-005zm232.3119,8.895 12.7809.2825 3.8958-4.0143c5.3022-5.4635 7.0989-6.3193 10.1058-4.8135 1.9212.9621 2.4511,2.0295 2.505,5.0461l.0683,3.8258 32.4317-.0604c166.9212-.3107 158.8192-.2095 159.2717-1.99 .2336-.9192.4669-24.5468.5185-52.5059l.0937-50.8347-86.2261.3286-86.2261.3286-.2195-20.4939-.2195-20.4939-89.7805-.2054c-49.3793-.113-92.9305-.2669-96.7805-.342s-20.3078-.0666-36.573.0189-30.7285-.1346-32.1409-.489-2.8422-.2007-3.1774.3417c-.6011.9726 1.4091,19.8828 3.3795,31.7912 1.2433,7.5142 1.2791,14.4141.0845,16.3014-1.0371,1.6384-6.6511,1.9049-8.1683.3877-.5659-.5659-1.6187-5.9284-2.3395-11.9167-3.2272-26.8117-4.9889-36.3875-6.8002-36.9624-3.95-1.2537-4.0165-.4975-3.3336,37.9541 .3626,20.4163.6911,53.1905.7301,72.8316l.0709,35.7111 104.0302.0185c57.2166.0102 104.2693.2576 104.5616.5499s1.4639.2142 2.6037-.1734 7.8237-.5776 14.8532-.4222l-1e-005,.0001zm-241.5751-6.145c-.2384-1.2375-.4334-.225-.4334,2.25s.195,3.4875.4334,2.25 .2384-3.2625 0-4.5zm11.2943,3.0833c0-3.6413-.4365-3.5093-1.3784.4167-.3916,1.6325-.2456,2.75.3593,2.75 .5605,0 1.0191-1.425 1.0191-3.1667zm563.7875-6.5833c.1581-5.0875.0906-9.25-.15-9.25s-2.0125,1.575-3.9375,3.5c-3.2246,3.2246-3.9736,3.5-9.5182,3.5-9.4558,0-9.1201.4805-8.6149-12.3327l.4403-11.1673 6.28-6c3.454-3.3 8.6274-8.0567 11.4964-10.5704l5.2164-4.5704 .1245-24.4296c.0685-13.4363.181-33.6546.25-44.9296l.1255-20.5-19.2842-.0992c-10.6063-.0546-19.456.1787-19.6659.5184-.3242.5246-.9705,143.0982-.6591,145.3804 .06.4398 8.5466.6648 18.8591.5l18.75-.2996 .2875-9.25zm23.5845,7.096c-.3664-1.4597-.762-4.2722-.8792-6.25-.3679-6.2092-.5669-6.728-1.5941-4.1566-.9487,2.375-.5183,6.2403 1.2039,10.8106 1.1744,3.1166 2.0806,2.8282 1.2693-.404zm-734.1805-4.0085c-1.0221-2.806-1.0344-2.7936-1.1125,1.1125-.058,2.8996.2169,3.6542 1.0336,2.8375 .7895-.7895.8124-1.9364.079-3.95h-5e-005zm766.7796,2.6234c-2.3713-1.4996-3.6524-1.0346-1.544.5605 1.0599.8018 2.1718,1.2131 2.471.9138s-.1179-.9627-.927-1.4744zm-363.7273.3747c-.6909-.2786-1.0019-.918-.691-1.421s-.1098-.9146-.9348-.9146-1.7544.4116-2.0652.9146c-.6138.9932 1.0571,1.9275 3.4472,1.9275 1.0125,0 1.0917-.1646.2438-.5065zm-330.0362-7.351c2.8023-2.7584 4.8056-5.3048 4.4519-5.6585-.6515-.6515-11.3528,8.5418-11.5516,9.9238-.2802,1.9483 2.4592.3026 7.0997-4.2653zm674.1991,2.0153c.693,0 1.26-.6321 1.26-1.4047s-.5852-1.1801-1.3005-.9056c-1.0348.3971-1.2447-2.1762-1.0277-12.5953 .15-7.2019-.0898-13.0944-.5329-13.0944s-.8056.1424-.8056.3163-.4786,2.9053-1.0635,6.0696c-.7862,4.2529-.7353,8.2777.1952,15.4337 .6923,5.3242 1.4289,8.8929 1.6369,7.9304s.9451-1.75 1.6381-1.75zm-606.5063-4.809c.0563-1.3038-.3357-2.04-.9003-1.691-.55.3399-.9551,2.504-.9003,4.809 .0851,3.5795.2165,3.8262.9003,1.691 .4404-1.375.8455-3.5391.9003-4.809zm627.2109-23.5255c-.9312-4.3945-1.8968,1.1312-1.3835,7.9174 .3018,3.99.2293,8.0786-.161,9.0858-.6774,1.7482-.7689,1.7508-2.0155.058-1.2502-1.6977-1.3225-1.6977-1.6962,0-.2147.9753-.1125,3.7983.2271,6.2733 .6036,4.3993.6208,4.4174.7677.809 .0826-2.03.6002-3.9691 1.1502-4.309 .9572-.5916 1.4578,1.303 1.1889,4.5-.0694.825.191,2.175.5786,3 .7438,1.583 2.0106-24.1873 1.3437-27.3345v1e-005zm-767.9113,24.1345c-.9333-.9333-1.2-.6667-1.2,1.2s.2667,2.1333 1.2,1.2 .9333-1.4667 0-2.4zm68.4094.95c1.0835-1.2375 3.4712-3.506 5.3059-5.0411s3.0766-3.0503 2.7599-3.3671-1.8358.4745-3.3756,1.7584c-3.855,3.2144-8.6962,8.8998-7.5784,8.8998 .505,0 1.8047-1.0125 2.8882-2.25zm67.558-2.9826c-.8898-.8898-1.1513-.3471-1.0997,2.2826 .0636,3.24.1346,3.311 1.1674,1.1674 .8131-1.6878.7955-2.5869-.0677-3.45h2e-005zm623.8926.7087c-.8776-2.9411-.889-2.9297-.974.974-.0558,2.5629.2561,3.608.888,2.976 .6023-.6023.6351-2.1096.086-3.95h-5e-005zm-106.0905.024c0-.55-.4362-.325-.9694.5s-.9694,1.95-.9694,2.5 .4362.325.9694-.5 .9694-1.95.9694-2.5zm-606.9694-2.559c0-1.0675-.3375-1.941-.75-1.941s-.75,1.082-.75,2.4045 .3375,2.1959.75,1.941 .75-1.337.75-2.4045zm-78.2837-5.691c-.2291-1.5125-.4166-.275-.4166,2.75s.1875,4.2625.4166,2.75 .2291-3.9875 0-5.5zm107.4245-.25c.4726,0 .8592-.7125.8592-1.5833 0-2.187-1.1295-1.5912-6.4233,3.3884-5.9941,5.6382-5.94,7.5649.064,2.2799 2.5524-2.2468 5.0274-4.085 5.5-4.085h4e-005zm621.6092,7.3697c2.0637-.5531 2.25-1.187 2.25-7.6576 0-8.0497-1.5298-10.7121-6.155-10.7121h-2.845v9.5c0,9.1892.0736,9.4995 2.25,9.4863 1.2375-.008 3.2625-.285 4.5-.6166zm-698.0443-6.6197c-.2384-1.2375-.4334-.225-.4334,2.25s.195,3.4875.4334,2.25 .2384-3.2625 0-4.5zm147.1262-1.5-.1681-7.75-.5819,6c-.32,3.3-.4169,6.7875-.2153,7.75 .7706,3.6782 1.1271,1.4621.9653-6zm-12.2277,4.0208c-.3323-.3323-.5686.2583-.5252,1.3125 .048,1.1649.2849,1.4019.6042.6042 .2889-.7219.2534-1.5844-.0789-1.9167h-4e-005zm5.8531.6601c-.8572-1.387-1.4573-1.1284-1.4573.6281 0,.8575.4573,1.2764 1.0163.9309s.7574-1.047.441-1.559zm-132.4573-.4899c0-.8575-.45-1.2809-1-.941s-1,1.0415-1,1.559 .45.941 1,.941 1-.7016 1-1.559zm645.7234-9.691c-.2218-1.7875-.4033-.325-.4033,3.25s.1815,5.0375.4033,3.25 .2218-4.7125 0-6.5zm-606.7234,5.132c0-.55-.45-.7219-1-.382s-1,1.068-1,1.618 .45.7219 1,.382 1-1.068 1-1.618zm15,1.118c0-.55-.45-1-1-1s-1,.45-1,1 .45,1 1,1 1-.45 1-1zm81.7234-9.25c-.2218-1.7875-.4033-.325-.4033,3.25s.1815,5.0375.4033,3.25 .2218-4.7125 0-6.5zm574.2424,2.1588c4.4188-3.9002 8.0342-7.2744 8.0342-7.4983 0-.8106-9.572,6.5104-12.4371,9.5122-2.1601,2.2633-3.8796,3.0959-6.5,3.1476-2.9019.0572-3.1918.2297-1.5629.9297 3.5112,1.5088 4.2816,1.1324 12.4658-6.0912zm-656.3657-1.1363c.2044-3.4577.004-4.7382-.5833-3.7202-.8633,1.4975-1.0012,10.2655-.1481,9.4124 .2309-.2309.56-2.7923.7313-5.6922zm9.4,1.7276 4.4164-4.5h-4.0082c-2.2045,0-4.5482.54-5.2082,1.2-1.3263,1.3263-1.6651,7.8-.4082,7.8 .4355,0 2.7792-2.025 5.2082-4.5zm692.6623,1.25c-.2774-.6875-.5044-.125-.5044,1.25s.227,1.9375.5044,1.25 .2774-1.8125 0-2.5zm-795-2c-.2774-.6875-.5044-.125-.5044,1.25s.227,1.9375.5044,1.25 .2774-1.8125 0-2.5zm39.1852-8.5c-.1308-10.0788-.243-10.8255-.7886-5.25-.6033,6.1647-.2432,17 .5649,17 .2069,0 .3075-5.2875.2237-11.75zm-8.2433,8.0208c-.3323-.3323-.5686.2583-.5252,1.3125 .048,1.1649.2849,1.4019.6042.6042 .2889-.7219.2534-1.5844-.0789-1.9167h-4e-005zm140.8531.6601c-.8572-1.387-1.4573-1.1284-1.4573.6281 0,.8575.4573,1.2764 1.0163.9309s.7574-1.047.441-1.559zm568.0528-.9472c.3455-.559.972-.8038 1.3924-.544s.7642-.1829.7642-.9837c0-2.0001-1.0235-1.8242-3.1667.544-.9955,1.1-1.3168,2-.714,2s1.3786-.4573 1.7241-1.0163zm27.2399-17.8597c2.3375-1.8106 4.25-3.742 4.25-4.292 0-.9078-7.0753,3.9961-9.51,6.5914-.5555.5922-3.0305,2.6328-5.5,4.5348s-5.078,4.2645-5.7967,5.25-1.8562,1.7919-2.5278,1.7919c-1.479,0-4.7257,3.6065-3.9474,4.3848 .3046.3046 4.6551-2.9388 9.6678-7.2075s11.0266-9.2427 13.3641-11.0533zm47.5691,17.126c.2404-.4125.758-19.1044 1.1502-41.5376 .5315-30.3997.4175-41.1438-.4475-42.1861-.7972-.9606-.8513-1.9765-.1727-3.2443 .8672-1.6205 1.2667-18.998 1.2706-55.282 .002-16.2082-.0577-17.1896-1.02-16.8333-.4952.1833-3.2024,2.4956-6.0161,5.1384l-5.1157,4.8051-.3288,37.7893c-.1808,20.7841-.6321,38.2802-1.0029,38.8801-.423.6844.5438,1.2081 2.5949,1.4056l3.269.3148v11.5591c0,11.1511-.0971,11.6745-2.75,14.8267l-2.75,3.2676v20.9233 20.9233h5.441c2.9925,0 5.6377-.3375 5.8781-.75zm-638.6721-4.7089c2.3292-.0335 2.9093-.5273 3.1596-2.6894 .2363-2.0409-.1078-2.6143-1.5-2.5-1.5577.1279-1.8708-.8851-2.2725-7.3517l-.4659-7.5-.5341,9.5c-.385,6.8472-.8832,9.4302-1.7841,9.25-.6875-.1375-1.2834.0875-1.3243.5s-.2577,1.875-.4819,3.25l-.4076,2.5 1.3789-2.4589c.9492-1.6927 2.2679-2.4717 4.2319-2.5zm616.353,3.4589c0-.55-.45-1-1-1s-1,.45-1,1 .45,1 1,1 1-.45 1-1zm-714.6817-4.5176c.2474-2.1903.0837-4.8824-.3639-5.9824-.5488-1.3487-.8367.0895-.8841,4.4167-.0771,7.0372.5422,7.8141 1.2481,1.5658zm661.1817,2.0486c1.65-1.3525 2.55-2.4591 2-2.4591s-2.35,1.1066-4,2.4591-2.55,2.4591-2,2.4591 2.35-1.1066 4-2.4591zm-739.3436-4.2786c-.3685-5.4714-1.1564-5.3027-1.1564.2476 0,2.6583.3159,4.5174.702,4.1313s.5906-2.3566.4544-4.379zm685.5612-1.9886c-.2299-1.5201-.4241-.5138-.4316,2.2363s.1806,3.9937.4179,2.7637 .2435-3.4799.0136-5h5e-005zm53.3567.4778c3.6159-3.4329 8.1159-7.4525 10-8.9326s6.5757-5.6923 10.4257-9.3605 8.0877-7.3958 9.4171-8.2835l2.4171-1.614-2.4171-.6758c-1.3294-.3717-3.1803-.7207-4.1131-.7755-1.6041-.0943-12.2552,8.6232-21.2598,17.4003-2.257,2.2-6.4978,6.025-9.4239,8.5-2.9261,2.475-6.3932,5.4845-7.7047,6.6878l-2.3845,2.1878 3.2344.4022c1.7789.2212 3.6844.4704 4.2344.5537s3.9585-2.6571 7.5743-6.09zm8.1176,4.5084c2.6353-2.8183 8.7643-7.8774 16.8081-13.8742 6.8702-5.1219 9.1748-7.3758 7.5417-7.3758-.8799,0-23.6358,18.3149-25.9467,20.883-2.2794,2.5331-.756,2.8833 1.5969.367zm72.4122-1.9792c-.3323-.3323-.5686.2583-.5252,1.3125 .048,1.1649.2849,1.4019.6042.6042 .2889-.7219.2534-1.5844-.0789-1.9167h-4e-005zm-28-1c-.3323-.3323-.5686.2583-.5252,1.3125 .048,1.1649.2849,1.4019.6042.6042 .2889-.7219.2534-1.5844-.0789-1.9167h-4e-005zm-759.9171-4.0325c-.2503-.9561-.446.0617-.4349,2.2617s.2159,2.9823.4551,1.7383 .2301-3.0439-.0202-4h2e-005zm62.3129,3.1436c0-.825-.45-1.2219-1-.882s-1,1.293-1,2.118 .45,1.2219 1,.882 1-1.293 1-2.118zm73.6007,1.781c-.7388-1.1953 2.3502-5.3113 3.4677-4.6207 .5124.3167.9316-.086.9316-.8948 0-.8615-.7248-1.3318-1.75-1.1355-.9625.1843-2.0364.3694-2.3865.4115-.7942.0955-1.6988,5.9079-1.0245,6.5822 .8006.8006 1.3231.5656.7617-.3427zm629.3993-.163c0-.55-.45-1-1-1s-1,.45-1,1 .45,1 1,1 1-.45 1-1zm-107.5431-2.4928c-.1634-3.7331-1.4569-4.3314-1.4569-.6739 0,1.7417.3524,3.1667.783,3.1667s.7339-1.1218.6739-2.4928zm55.5431.9337c0-.8575.4028-1.31.8952-1.0057s1.1532-.1191 1.4686-.941c.7522-1.9603-.2625-1.8959-2.5351.1607-2.009,1.8181-2.3873,3.345-.8287,3.345 .55,0 1-.7016 1-1.559zm78.6559-3.71c-.2739-.677-.4814.119-.461,1.769s.2445,2.2039.498,1.231 .2369-2.323-.0371-3h5e-005zm3.0874-18.481c-.1875-4.2625-.3408-.775-.3408,7.75s.1534,12.0125.3408,7.75 .1875-11.2375 0-15.5zm-34.7433,18.25c0-1.375-.1725-2.5-.3834-2.5s-.5985,1.125-.8613,2.5-.0903,2.5.3834,2.5 .8613-1.125.8613-2.5zm8.2212-18.2946c.244-11.162.069-20.5261-.3888-20.809-.8404-.5194-.9788,3.2692-.9173,25.1036 .0479,17.0008.0443,16.8768.4737,16.4167 .2139-.2292.5884-9.5492.8324-20.7112zm23.7788,11.7946c0-2.75-.45-5-1-5-1.0922,0-1.3667,5.8807-.393,8.4182 1.0286,2.6806 1.393,1.7865 1.393-3.4182zm-787.5427,1.9309c-.8572-1.387-1.4573-1.1284-1.4573.6281 0,.8575.4573,1.2764 1.0163.9309s.7574-1.047.441-1.559zm653.4175-3.1809-.1252-5.25-.7482,4.5c-.6944,4.1761-.5249,6 .5576,6 .2425,0 .3847-2.3625.3158-5.25zm-689.5282,3.3097c4.556-1.0572 7.8649-3.9344 10.6335-9.2462 2.2849-4.3837 2.6786-11.3116.7111-12.5138-.7198-.4398-1.8923-2.245-2.6055-4.0116-1.8672-4.6246-8.6382-7.7579-14.911-6.9-2.5711.3516-4.8248,1.0832-5.0081,1.6256s-.8583.9863-1.5.9863-2.4766,1.6418-4.0777,3.6484c-5.8186,7.2924-4.2436,18.627 3.2928,23.6957 5.7385,3.8596 7.2347,4.1613 13.465,2.7156zm77.9027-2.5358c-.656-3.4314-1.2493-3.1773-1.2493.5352 0,1.6825.3897,2.8182.8659,2.5239s.6488-1.6709.3834-3.059zm100.4066-.7929c-.2739-.677-.4814.119-.461,1.769s.2445,2.2039.498,1.231 .2369-2.323-.0371-3h5e-005zm522.0311-1.4926c-.2503-.9561-.446.0617-.4349,2.2617s.2159,2.9823.4551,1.7383 .2301-3.0439-.0202-4h2e-005zm91.4166-.5347c-.8048-.8048-1.0954-.305-1.0732,1.8464 .0267,2.5861.1628,2.7222 1.1036,1.1036 .7692-1.3233.7605-2.1591-.0304-2.95zm-32.1036.7053c0-.1904-.675-.0871-1.5.2294s-1.5,1.0326-1.5,1.5911c0,.5853.6354.4881 1.5-.2294 .825-.6847 1.5-1.4007 1.5-1.5911zm-727.5-.9089c0-1.375-.3375-2.5-.75-2.5s-.75,1.125-.75,2.5 .3375,2.5.75,2.5 .75-1.125.75-2.5zm60.7198-1.456c-.6027-4.1067-1.2198-3.8461-1.2198.515 0,1.9575.375,3.3273.8333,3.044s.6322-1.8848.3865-3.559zm75.0049-8.044c.2156-6.325.073-12.625-.3167-14s-.7535,3.9875-.8083,11.9167 .0877,14.2292.3167,14 .5928-5.5917.8083-11.9167zm-132.2551,8.25c-.0261-2.359-.176-2.5-1.0541-.9921-.563.9669-.7478,2.2044-.4106,2.75 1.0339,1.673 1.4965,1.1178 1.4647-1.7579zm650.6793-1.1964c.1779-1.6249-.0918-3.9891-.5993-5.2539-.7252-1.8072-.9363-1.0327-.9861,3.617-.0641,5.9855.9902,7.0741 1.5855,1.6369zm82.1018-3.572c1.7879-1.5474 3.0434-3.0208 2.79-3.2742-.6803-.6803-10.5408,7.7949-10.5408,9.06 0,.5947 1.0125.1692 2.25-.9456s3.7128-3.2928 5.5007-4.8403zm-589.4014,3.0504c.3098-.8074.133-1.734-.393-2.059s-.9563.3355-.9563,1.468c0,2.4146.5561,2.6582 1.3493.591zm-101.7452-2.2612c-.3323-.3323-.5686.2583-.5252,1.3125 .048,1.1649.2849,1.4019.6042.6042 .2889-.7219.2534-1.5844-.0789-1.9167h-4e-005zm99.0201-6.3768c.0684-5.008-.238-8.5191-.6808-7.8026-1.3484,2.1818-1.03,16.9104.3655,16.9083 .105-.0002.2469-4.0977.3153-9.1057zm646.9799,6.3768c-.3323-.3323-.5686.2583-.5252,1.3125 .048,1.1649.2849,1.4019.6042.6042 .2889-.7219.2534-1.5844-.0789-1.9167h-4e-005zm-133.0904-14.8303c.0829-8.5414-.1842-15.7368-.5936-15.9899s-.8021,7.0602-.8725,16.2516 .1967,16.3868.5936,15.9899 .7896-7.7101.8725-16.2516zm10.208,6.2872c-.2209-1.7752-.398-.0777-.3936,3.7723s.1852,5.3025.4017,3.2277 .2128-5.2248-.008-7h-7e-005zm-669.0658,4.0033c-.2739-.677-.4814.119-.461,1.769s.2445,2.2039.498,1.231 .2369-2.323-.037-3h-5e-005zm46.6335.268c-.7196-2.7515-1.2895-2.504-1.2895.56 0,1.4075.4078,2.307.9061,1.999s.6709-1.4596.3834-2.559zm94.3772.545c0-.8008-.3823-1.2197-.8497-.9309s-.5908.944-.2743,1.456c.8086,1.3084 1.124,1.1611 1.124-.5251zm651.318-.794c-.012-1.7567-.2167-1.9316-.934-.7977-.5053.7987-.6968,1.8112-.4257,2.25 .8674,1.4034 1.3754.8608 1.3597-1.4523zm-731.3805-4.4792c-.3323-.3323-.5686.2583-.5252,1.3125 .048,1.1649.2849,1.4019.6042.6042 .2889-.7219.2534-1.5844-.0789-1.9167h-4e-005zm593.6856.7292c-.2877-1.1-.6955-2-.9064-2s-.3834.9-.3834,2 .4079,2 .9064,2 .671-.9.3834-2zm-650.5398-.4836c-.1375-.541-1.0073-.8553-1.9328-.6985-1.2337.209-1.7915-.596-2.09-3.0164l-.4072-3.3015-.16,3.6767c-.1196,2.7482.2819,3.7906 1.59,4.1278 2.3911.6164 3.2965.3785 3-.7881zm142.8542-2.2456c-.3323-.3323-.5686.2583-.5252,1.3125 .048,1.1649.2849,1.4019.6042.6042 .2889-.7219.2534-1.5844-.0789-1.9167h-4e-005zm647.4477-6.5225c1.1392.1823 1.5782-.6813 1.651-3.2478 .0545-1.9229-.3063-3.2456-.8019-2.9393s-.901,1.4568-.901,2.5568-.4125,1.745-.9168,1.4334-.8332-5.1009-.7311-10.6428-.1603-10.2901-.5832-10.5514c-.7729-.4777-.9353,3.6712-.8672,22.1428 .0434,11.7597.2068,12.7348 1.0054,6 .4458-3.7592.978-4.9384 2.1448-4.7517zm-131.1726-23.5725c.0933-15.2217.2719-31.8384.397-36.9259s-.1109-9.25-.5244-9.25-.7849.7875-.8253,1.75-.2235,4.9-.4068,8.75c-.3082,6.4722-.8193,62.7437-.5904,65 .0558.55.4792.4042.9409-.3241s.9158-13.7783 1.0091-29zm131.7249,27.095c-.3323-.3323-.5686.2583-.5252,1.3125 .048,1.1649.2849,1.4019.6042.6042 .2889-.7219.2534-1.5844-.0789-1.9167h-4e-005zm-790.9482-3.5399c-.2739-.677-.4814.119-.461,1.769s.2445,2.2039.498,1.231 .2369-2.323-.037-3h-5e-005zm136.8441,3.269c-.3399-.55-.8165-1-1.059-1s-.441.45-.441,1 .4766,1 1.059,1 .7809-.45.441-1zm528.1871-4.7617c-.2503-.9561-.446.0617-.4349,2.2617s.2159,2.9823.4551,1.7383 .2301-3.0439-.0202-4h2e-005zm-684.1871,2.7617c.9955-1.1 1.585-2 1.31-2-.275,0-1.3145.9-2.31,2s-1.585,2-1.31,2c.275,0 1.3145-.9 2.31-2zm670,1c-.3399-.55-.8165-1-1.059-1s-.441.45-.441,1 .4766,1 1.059,1 .7809-.45.441-1zm-669.9978-5.8312c-.6639-.6639-4.5022,2.8831-4.5022,4.1605 0,.5606 1.1232-.0359 2.4961-1.3256s2.2756-2.5654 2.0061-2.8348zm160.0456-.6984c-.3747-2.4988-.228-4.5501.351-4.9079 .5967-.3688 1.1422,1.4967 1.363,4.6613 .2337,3.3488.3934,2.1712.4372-3.2238 .0379-4.675-.132-7.7374-.3777-6.8054-.2595.9844-1.049,1.4634-1.884,1.143-1.1728-.45-1.4373.8596-1.4373,7.1144 0,5.3029.3378,7.4572 1.0958,6.9887 .6905-.4267.8577-2.2653.452-4.9703zm-144.8608-2.2321c-.2503-.9561-.446.0617-.4349,2.2617s.2159,2.9823.4551,1.7383 .2301-3.0439-.0202-4h2e-005zm46.0022,1.0117c-.2515-.9625-.4573-.175-.4573,1.75s.2058,2.7125.4573,1.75 .2515-2.5375 0-3.5zm-64.8893,2.55c.66-.66 1.2-1.8547 1.2-2.655 0-1.155-.4124-1.0818-2,.355-2.0544,1.8592-2.617,3.5-1.2,3.5 .44,0 1.34-.54 2-1.2zm807.8042-2.5292c-.3323-.3323-.5686.2583-.5252,1.3125 .048,1.1649.2849,1.4019.6042.6042 .2889-.7219.2534-1.5844-.0789-1.9167h-4e-005zm-809.6042-.7708c1.501-1.5977 1.863-2.5 1.0031-2.5-1.5327,0-5.0031,2.8821-5.0031,4.155 0,1.546 1.6242.874 4-1.655zm158.0345-5.0524c.3692-5.9466.0407-11.8561-.6223-11.1931-.3233.3233-.7437,4.7858-.9343,9.9167-.3309,8.9089 1.0142,10.0119 1.5565,1.2765zm516.6215,3.2834c-.2739-.677-.4814.119-.461,1.769s.2445,2.2039.498,1.231 .2369-2.323-.0371-3h5e-005zm-678.1987.3162c1.707-1.8862 1.6765-1.9755-.8916-2.6201-3.0234-.7588-3.0698-.7319-4.0088,2.3229-.5502,1.7901-.3007,2.25 1.2208,2.25 1.0518,0 2.7077-.8788 3.6796-1.9528zm799.0357.9642c.3503-.5669-.0511-.7345-.941-.393-1.7324.6648-2.0494,1.3816-.611,1.3816 .5175,0 1.2159-.4449 1.5519-.9886zm-633.8036-4.7614c-.2515-.9625-.4573-.175-.4573,1.75s.2058,2.7125.4573,1.75 .2515-2.5375 0-3.5zm-93.7596-1.5c.0387-.9625-.2877-1.75-.7253-1.75s-.8673,1.6875-.955,3.75c-.1248,2.9364.0326,3.3161.7253,1.75 .4866-1.1.9163-2.7875.955-3.75zm621.7262.981c-.2739-.677-.4814.119-.461,1.769s.2445,2.2039.498,1.231 .2369-2.323-.0371-3h5e-005zm101.188,1.1726c-.864-.534-1.4422-16.512-.7452-20.5944 .076-.445.0689-3.7341-.0157-7.3091-.1445-6.1043-.238-6.348-1.5358-4.0029-.7601,1.3734-1.0257,2.9484-.5902,3.5s.473,7.5279.0834,15.5029c-.3896,7.975-.5372,14.8283-.328,15.2295s1.2415.1917 2.2941-.4656c1.2068-.7537 1.5162-1.4409.8375-1.8603zm4.5011.5533c-.3257-.8487-.8066-1.3287-1.0688-1.0665s-.18.9565.1825,1.5431c.986,1.5955 1.5624,1.2855.8862-.4766zm-774.4358-12.4569c-.4557-1.545-.7164.5562-.6825,5.5 .0526,7.67.083,7.7731.7374,2.5 .3754-3.025.3507-6.625-.0549-8h5e-005zm654.2781,8.6371c.0754-2.0053-.1609-3.944-.5251-4.3082s-.6622,1.5128-.6622,4.1711c0,5.531.9803,5.6442 1.1873.1371zm141.7974-1.8281c.008-.93-.4347-1.9691-.9847-2.309-.6007-.3712-.9939.903-.9847,3.191 .0114,2.8275.2651,3.4225.9847,2.309 .5332-.825.9763-2.2609.9847-3.191zm-831.6034.7422c-.3803-.9911.4982-1.7781 2.7814-2.4915 2.7683-.8649 2.8684-.9826.5873-.6899-3.1111.3992-3.6192-.7642-1-2.2897 .9625-.5606 1.2482-1.033.6349-1.0497s-2.3008.9023-3.75,2.0422c-3.1556,2.4822-3.5428,5.9274-.6663,5.9274 1.3081,0 1.7821-.4861 1.4127-1.4488zm704.2229-1.2804c-.3323-.3323-.5686.2583-.5252,1.3125 .048,1.1649.2849,1.4019.6042.6042 .2889-.7219.2534-1.5844-.0789-1.9167h-4e-005zm105.7895,1.1456c.3737-.9739.1502-1.4311-.5805-1.1875-1.4948.4983-2.3179,2.7711-1.0035,2.7711 .537,0 1.2498-.7126 1.584-1.5836zm-115.3937-.9755c0-.2425-.45-.441-1-.441s-1,.4766-1,1.059 .45.7809 1,.441 1-.8165 1-1.059zm-612-.382c0-.5175-.45-1.2191-1-1.559s-1,.0835-1,.941 .45,1.559 1,1.559 1-.4234 1-.941zm99.9847-3.809c-.0101-2.4818-.306-3.2912-.875-2.3932-.5993.9458-1.0669,1.0215-1.5437.25-.3762-.6087-.4251-1.5257-.1087-2.0377s.118-1.2136-.441-1.559c-.64-.3956-.9734,1.1524-.9003,4.1809 .0638,2.645.3218,4.0215.5733,3.059 .6261-2.3956 2.3107-2.2134 2.3107.25 0,1.1.225,2 .5,2s.4931-1.6875.4847-3.75zm629.0153-.2852c0-1.3244-1.3542-1.2107-2.8.2352-1.8876,1.8876-1.4026,2.9788.8,1.8 1.1-.5887 2-1.5045 2-2.0352zm-117.1803-12.2148c-.0991-7.2875-.353-11.0087-.5642-8.2693s-.9176,5.32-1.5698,5.7347c-.904.5748-.896.7577.0338.7693 1.4233.0179 1.4966,6.8837.0926,8.6763-.5586.7133-.505,1.4109.1393,1.809 .5767.3564 1.0486,1.5215 1.0486,2.589s.225,1.941.5,1.941 .4189-5.9625.3197-13.25h-2e-005zm105.9871,10.7235c-.3079-.3079-.867.2471-1.2426,1.2333-.5427,1.4252-.4278,1.5401.5598.5598 .6834-.6783.9907-1.4852.6828-1.7931zm30.9623-5.0418c-.148-3.5346-.4192-5.9777-.6025-5.4291s-.7458.9974-1.25.9974c-1.445,0-1.0693-2.9902.5833-4.6429 1.1065-1.1065 1.4566-3.5142 1.3344-9.1786l-.1656-7.6786-.5844,7.6706c-.3214,4.2188-.9219,8.0063-1.3344,8.4167s-.7785.1086-.8134-.6706-.4704-.4042-.9678.8333-1.7064,2.2785-2.6866,2.3134c-1.4129.0503-1.3195.2495.4511.9616 1.4548.5851 2.026,1.4384 1.6386,2.448-.4302,1.1211-.1491,1.3787 1.0167.9314 1.365-.5238 1.6113.2481 1.6113,5.0477 0,3.5937.3728,5.4356 1.0192,5.0361 .5695-.352.9004-3.4653.75-7.0564zm-734.55-.6817c-.9476-1.9623-1.073-1.6811-.9811,2.1987 .0895,3.7787.2531,4.1176 1.0865,2.25 .6601-1.4793.6256-2.9349-.1054-4.4487zm-121.2593.5632c.2529-.2197.4779-9.8398.5-21.3778l.0402-20.9783-4.5.6489c-2.475.3569-4.786.8113-5.1356,1.0098s-.6966,8.9827-.7711,19.5206c-.1534,21.693.3027,23.3062 6.2688,22.1726 1.7259-.3279 3.3448-.776 3.5977-.9957zm105.6444-1.0424c-.3323-.3323-.5686.2583-.5252,1.3125 .048,1.1649.2849,1.4019.6042.6042 .2889-.7219.2534-1.5844-.0789-1.9167h-4e-005zm95.3958,2.3457c0-.8486-5.085-1.288-5.5829-.4825-.2943.4762.8414.8659 2.5239.8659s3.059-.1725 3.059-.3834zm5.9297-11.3666c-.0448-7.4961-.3814-11.0259-.9297-9.75-.7022,1.6342-.8695,1.3598-.9144-1.5-.041-2.6124.1908-3.1196.9144-2 .7269,1.1248.9694.6245.9694-2 0-2.6903-.2355-3.153-1.0181-2-.7204,1.0614-.9352-.9132-.7347-6.7523 .1851-5.3901-.0891-8.2515-.7904-8.25-.7216.002-1.1164,6.07-1.2036,18.5024-.0714,10.175.2572,18.5.7302,18.5s.6246-.9.337-2c-.2924-1.1182-.0307-2 .5936-2 .6868,0 1.1166,2.117 1.1166,5.5 0,3.025.225,5.5.5,5.5s.4684-5.2875.4297-11.75zm-1.9986-.5c-.6548-2.3759-.5782-5.8501.1388-6.2932 .5115-.3162.9301,1.0267.9301,2.9842s-.225,3.559-.5,3.559-.531-.1125-.5689-.25zm-4.2688,6c-.2774-.6875-.5044-.125-.5044,1.25s.227,1.9375.5044,1.25 .2774-1.8125 0-2.5zm3.6993,1.75c-.3166-.825-.7525-1.5-.9686-1.5s-.393.675-.393,1.5 .4359,1.5.9686,1.5 .7096-.675.393-1.5zm510.6231-3.75c-.008-2.8875-.3616-4.7052-.7847-4.0393s-.6779,2.4659-.5659,4 .2401,3.3518.2847,4.0393 .3062,1.25.5812,1.25 .4931-2.3625.4847-5.25zm109.7477,2.6671c.1633-1.347.0443-1.4711-.4-.4171-.3478.825-1.1273,1.8718-1.7324,2.3261-.7075.5314-.5648.6802.3999.4171 .825-.2249 1.6046-1.2717 1.7324-2.3261zm-763.7324.0239c0-.2425-.45-.441-1-.441s-1,.4766-1,1.059 .45.7809 1,.441 1-.8165 1-1.059zm164.6042-1.1702c-.3323-.3323-.5686.2583-.5252,1.3125 .048,1.1649.2849,1.4019.6042.6042 .2889-.7219.2534-1.5844-.0789-1.9167h-4e-005zm623,0c-.3323-.3323-.5686.2583-.5252,1.3125 .048,1.1649.2849,1.4019.6042.6042 .2889-.7219.2534-1.5844-.0789-1.9167h-4e-005zm-189.9897.448c.1373-.1373.4411-8.6334.675-18.88l.4253-18.6303-84.1073.2616c-46.259.1439-84.6698.322-85.3573.3957-.9499.1019-1.25,4.5584-1.25,18.5645 0,18.3517.01,18.4318 2.25,18.75 2.5948.3685 166.9878-.0849 167.3645-.4616zm-91.6145-6.8984c-4.744-.82-8-3.6411-8-6.9313 0-1.6233-.7742-1.8892-5.5-1.8892-5.8628,0-7.0429-1.3142-3.954-4.4031 1.1555-1.1555 2.7342-1.3956 6.25-.9506 5.0384.6377 7.204,2.4181 7.204,5.9224 0,4.0786 2.413,4.8663 15.0101,4.8999 13.2566.0353 15.6146-.9588 16.1843-6.8233 .3009-3.0969.3962-3.15 6.2013-3.4495 5.462-.2819 8.8821.8598 7.3038,2.4381-.3669.3669-2.6793,1.1781-5.1387,1.8025-3.289.8351-5.0784,2.035-6.7662,4.5371-1.3746,2.0377-3.4976,3.6909-5.2947,4.1229-4.7758,1.1482-18.5854,1.5737-23.5.7242zm-460.5,6.1795c-.3399-.55-.8165-1-1.059-1s-.441.45-.441,1 .4766,1 1.059,1 .7809-.45.441-1zm-97.66-6.8666c-.1396-4.0423-.2125-4.1869-.5713-1.1334-.5051,4.2983-1.9752,6.0793-3.295,3.9916-.7648-1.2096-.9459-1.0925-.9584.6197-.0124,1.7154.4535,2.0217 2.4847,1.6334 2.2683-.4336 2.4852-.9074 2.34-5.1113zm69.4922,3.6166c-.4456-2.0862-.3762-2.1226.9539-.5 2.1982,2.6817 3.0465,2.0786 1.0107-.7186-1.7462-2.3992-4.2663-3.2285-5.6392-1.8556-.5346.5346 2.9946,5.3242 3.9232,5.3242 .1276,0 .0158-1.0125-.2485-2.25zm6.5296-1.3613c-.6568-1.5888-1.2319-3.2426-1.278-3.6752-.1392-1.3064-2.8116-2.5633-4.2646-2.0058-1.0101.3876-.7421,1.0744 1.037,2.6575 1.3195,1.1741 2.9406,3.1858 3.6025,4.4704 1.6621,3.2259 2.3676,2.0956.9031-1.447zm115.8276-1.1387c-.2515-.9625-.4573-.175-.4573,1.75s.2058,2.7125.4573,1.75 .2515-2.5375 0-3.5zm648.0164-3.5c-.2384-1.2375-.4334-.225-.4334,2.25s.195,3.4875.4334,2.25 .2384-3.2625 0-4.5zm-836.9617-19c-.1853-4.5375-.3369-.825-.3369,8.25s.1516,12.7875.3369,8.25 .1853-11.9625 0-16.5zm95.1377,16.5c-.0905-4.3957-.273-5.0434-.775-2.75-.6306,2.8806-.2955,8.5.5069,8.5 .2126,0 .3333-2.5875.2682-5.75zm8.539-7.5976c.099-6.8421-.1486-13.2755-.5501-14.2963-.733-1.8637-.9658,2.6307-.9658,18.6439 0,9.8666-.0332,9.4618.7156,8.713 .3412-.3412.7013-6.2185.8003-13.0606zm5.2416,10.0976c-.2774-.6875-.5044-.125-.5044,1.25s.227,1.9375.5044,1.25 .2774-1.8125 0-2.5zm103.9419-.4792c-.3323-.3323-.5686.2583-.5252,1.3125 .048,1.1649.2849,1.4019.6042.6042 .2889-.7219.2534-1.5844-.0789-1.9167h-4e-005zm504,0c-.3323-.3323-.5686.2583-.5252,1.3125 .048,1.1649.2849,1.4019.6042.6042 .2889-.7219.2534-1.5844-.0789-1.9167h-4e-005zm96,0c-.3323-.3323-.5686.2583-.5252,1.3125 .048,1.1649.2849,1.4019.6042.6042 .2889-.7219.2534-1.5844-.0789-1.9167h-4e-005zm-109.2548.2612c.3098-.8074.133-1.734-.393-2.059s-.9563.3355-.9563,1.468c0,2.4146.5561,2.6582 1.3493.591zm138.3136-36.195c.2682-19.7015.1822-35.5155-.1911-35.1422-.6429.6429-1.3499,22.5611-1.542,47.8052-.1394,18.3199.0283,24.3752.6578,23.7456 .3232-.3232.8071-16.7071 1.0753-36.4086zm-765.163,33.663c-1.8118-2.002-7.1714-2.8953-6-1 .3399.55 1.7165,1 3.059,1s2.441.45 2.441,1 .5197,1 1.155,1c.655,0 .3714-.8658-.655-2zm112.1871-3.7617c-.2503-.9561-.446.0617-.4349,2.2617s.2159,2.9823.4551,1.7383 .2301-3.0439-.0202-4h2e-005zm-196.0829,2.0325c-.3323-.3323-.5686.2583-.5252,1.3125 .048,1.1649.2849,1.4019.6042.6042 .2889-.7219.2534-1.5844-.079-1.9167h5e-005zm193.7058-9.4624c.6963-.4304 1.4715-.0247 1.8696.9782 .5531,1.3938.6931,1.2937.7502-.5366 .051-1.6335-.4986-2.25-2.0062-2.25-1.803,0-2.0385-.5252-1.7885-3.9885 .2946-4.0806-1.2836-7.1981-2.5812-5.0986-.3695.5979-.2188,1.0871.335,1.0871 .5925,0 .9914,3.1897.9693,7.75-.051,10.5093.4279,14.9755.887,8.2718 .2064-3.013.9105-5.809 1.5648-6.2134zm516.6901,7.9916c0-1.6154-.2957-1.9043-1.1129-1.0871-.6121.6121-.8105,1.6021-.441,2.2 1.0344,1.6737 1.5539,1.3016 1.5539-1.1129zm110.0939-1.8805c-.9087-2.2735-.9709-2.2112-1.0305,1.0305-.0435,2.368.2598,3.1268.9671,2.4195 .6824-.6824.7038-1.8479.0634-3.45zm-105.9158-7.83c-.962-2.6336-1.8771,2.1756-1.3149,6.9105l.5343,4.5 .6479-5c.3563-2.75.416-5.6347.1327-6.4105zm129.4261,7.1813c-.3323-.3323-.5686.2583-.5252,1.3125 .048,1.1649.2849,1.4019.6042.6042 .2889-.7219.2534-1.5844-.0789-1.9167h-4e-005zm-19.7723-3.0208c-.154-4.3518-.201-4.4356-.5604-1-.2157,2.0625-.8417,3.75-1.3909,3.75s-.7205.45-.3806,1c1.4474,2.342 2.4883.6682 2.3319-3.75zm-605.747.6452c-.527-1.3174-.9866-1.8695-1.0215-1.227-.0847,1.5606 1.0802,4.5215 1.5816,4.0201 .2189-.2189-.0332-1.4758-.5602-2.7931zm-116.4226-1.1452c-.2774-.6875-.5044-.125-.5044,1.25s.227,1.9375.5044,1.25 .2774-1.8125 0-2.5zm-46.9729-2.5c-.2515-.9625-.4573-.175-.4573,1.75s.2058,2.7125.4573,1.75 .2515-2.5375 0-3.5zm655.2404.5c-.0572-2.6466-.2172-2.8787-.8616-1.25-.4352,1.1-.5805,2.5625-.3227,3.25 .8042,2.1452 1.2574,1.3798 1.1843-2zm110.4629-3.2099c.1349-2.5552-.1233-4.8736-.5737-5.152-.8231-.5087-1.2023,1.6074-.8712,4.8619 .0979.9625-.2768,1.75-.8326,1.75s-1.1759-2.3625-1.3779-5.25c-.3441-4.9182-.379-4.8234-.5523,1.5-.1676,6.1156.8526,8.7221 2.1527,5.5 .278-.689.5398-.3897.5833.6667 .1487,3.6109 1.2261.7728 1.4715-3.8765zm23.6074,3.9009c0-.8575-.45-1.2809-1-.941s-1,1.0415-1,1.559 .45.941 1,.941 1-.7016 1-1.559zm-742.086-5.691c-.0692-4.2256-.2415-4.7356-.8831-2.6138-.7294,2.4121-.3234,7.8638.5856,7.8638 .2109,0 .3447-2.3625.2975-5.25zm99.7482,0c-.2774-.6875-.5044-.125-.5044,1.25s.227,1.9375.5044,1.25 .2774-1.8125 0-2.5zm-198.0063-2.019c-.2739-.677-.4814.119-.461,1.769s.2445,2.2039.498,1.231 .2369-2.323-.0371-3h4e-005zm51.0334-.481c-.2515-.9625-.4573-.175-.4573,1.75s.2058,2.7125.4573,1.75 .2515-2.5375 0-3.5zm61.9172-.2847c.1121-2.1809-.091-3.965-.4514-3.9645s-.7924,2.1252-.9601,4.7216 .0354,4.3805.4514,3.9645 .848-2.5407.9601-4.7216zm102.3935,1.9757c0-1.0675-.675-1.941-1.5-1.941-1.4833,0-2.0967,3.0699-.8605,4.3061 1.0426,1.0426 2.3605-.2779 2.3605-2.3652zm494.6559-4.21c-.2739-.677-.4814.119-.461,1.769s.2445,2.2039.498,1.231 .2369-2.323-.0371-3h5e-005zm-2.6559,1.21c0-.5175-.6609-.941-1.4686-.941-.8921,0-1.2435.5866-.8952,1.4943 .5903,1.5383 2.3638,1.1232 2.3638-.5533zm-509.3958-1.6701c-.3323-.3323-.5686.2583-.5252,1.3125 .048,1.1649.2849,1.4019.6042.6042 .2889-.7219.2534-1.5844-.0789-1.9167h-4e-005zm623.3958.6702c0-.5175-.45-.941-1-.941s-1,.7016-1,1.559 .45,1.2809 1,.941 1-1.0415 1-1.559zm-723-1.941c0-.55-.4766-1-1.059-1s-.7809.45-.441,1 .8165,1 1.059,1 .441-.45.441-1zm21.4472-1.0854c-.322-.521-1.0116-.6838-1.5326-.3618s-.6838,1.0116-.3618,1.5326 1.0116.6838 1.5326.3618 .6838-1.0116.3618-1.5326zm90.5528,1.0854c0-.55-.4766-1-1.059-1s-.7809.45-.441,1 .8165,1 1.059,1 .441-.45.441-1zm608.9993-2.4628c-.0004-.5705-1.0922-1.1-2.4263-1.1768-1.6346-.0941-2.2602.2913-1.9185,1.1818 .5897,1.5366 4.3458,1.5324 4.3448-.005v6e-005zm29.0007-.5962c0-.5825-.45-.7809-1-.441s-1,.8165-1,1.059 .45.441 1,.441 1-.4766 1-1.059zm-840.4781-2.9323c1.6976-.007 2.2235-1.0711 3.2783-6.6314 1.7625-9.2913 7.8493-19.3021 14.2226-23.3919l4.8546-3.1152 17.1206-.0757c10.5426-.0466 17.5173.3209 18.1531.9567 .6522.6522.9066,6.7811.6907,16.6415l-.3418,15.6091 2.5.0524c21.4993.4505 414.1465-.0266 414.9191-.5041 .5945-.3674 1.594-.3509 2.2212.0368 1.3875.8575 300.4875.7613 301.8764-.0971 1.2198-.7539 1.3103-37.425.0972-39.3394-.6481-1.0227-2.5225-1.2012-7.7347-.7367-3.7836.3372-143.2293.868-309.8793,1.1796s-339,.7241-383,.9168-91.6417.395-105.8704.4496c-15.2324.0584-26.6433.5128-27.75,1.1051-1.7322.9269-1.8796,2.4121-1.8796,18.9331v17.9273l9.25.2875c5.0875.1581 17.35.1789 27.25.0462s18.9099-.2452 20.0219-.25zm808.8274-1.4766c.3098-.8074.133-1.734-.393-2.059s-.9563.3355-.9563,1.468c0,2.4146.5561,2.6582 1.3493.591zm31.6507-.091c0-.2425-.45-.441-1-.441s-1,.4766-1,1.059 .45.7809 1,.441 1-.8165 1-1.059zm-8.3377-2.691c-.2774-.6875-.5044-.125-.5044,1.25s.227,1.9375.5044,1.25 .2774-1.8125 0-2.5zm-785.9121-.4577c.9246-1.9909.9572-2.9655.125-3.7422-.7918-.739-1.2616-.678-1.5856.206-.2532.6909-.8421,1.0203-1.3086.732s-.8096.8339-.7624,2.4938c.1063,3.7395 1.8673,3.8943 3.5317.3104zm766.2498-1.3514c0-.5825-.45-.7809-1-.441s-1,.8165-1,1.059 .45.441 1,.441 1-.4766 1-1.059zm-7.3958-2.6702c-.3323-.3323-.5686.2583-.5252,1.3125 .048,1.1649.2849,1.4019.6042.6042 .2889-.7219.2534-1.5844-.0789-1.9167h-4e-005zm35.3958,1.1702c0-.8575-.45-1.2809-1-.941s-1,1.0415-1,1.559 .45.941 1,.941 1-.7016 1-1.559zm-52-.5c0-.5825-.45-.7809-1-.441s-1,.8165-1,1.059 .45.441 1,.441 1-.4766 1-1.059zm23.6623-4.191c-.2774-.6875-.5044-.125-.5044,1.25s.227,1.9375.5044,1.25 .2774-1.8125 0-2.5zm-15.1091-9.6143c2.7208-2.4004 7.671-6.9004 11.0005-10s8.6755-7.8857 11.8801-10.6357 7.6973-6.8 9.9838-9c13.7234-13.2041 33.7315-30.5259 34.6232-29.9748 1.1846.7321 3.9592-1.2319 3.9592-2.8026 0-.5679-.9-.2181-2,.7774s-2,1.36-2,.81 .9275-1.8394 2.061-2.8652c1.6571-1.4997 2.2232-1.6029 2.8882-.5269 .4549.7361 1.3275,1.0291 1.939.6512 1.6587-1.0252 1.3431-2.5951-.3882-1.9307-2.6837,1.0298-1.6027-.5417 4.2229-6.1394 5.7315-5.5072 6.7475-6.148 7.5299-4.749 .2307.4125.2892.2054.13-.4602-.4011-1.6768 10.6581-12.2898 12.8064-12.2898 1.1011,0 1.5459-.5268 1.2019-1.4233-.647-1.6861 3.2598-4.1171 5.9512-3.7031 1.3828.2127 1.697-.1745 1.2596-1.5524-.3648-1.1494.3485-2.9195 1.9077-4.734 2.5195-2.9321 3.1361-4.5871 1.709-4.5871-.4297,0-3.2422,2.3267-6.25,5.1704s-12.4436,11.7874-20.9686,19.8749c-8.525,8.0875-18.8666,17.7983-22.9813,21.5796-12.4339,11.4265-21.101,19.5031-29.0053,27.029-4.1324,3.9346-10.6504,10.0096-14.4845,13.5s-9.8603,9.1586-13.3916,12.5961-6.6042,6.25-6.8286,6.25c-1.0258,0-7.3088,6.84-7.3088,7.9568 0,.6901 1.2614-.0303 2.8031-1.601s5.0292-4.8197 7.75-7.2201zm-1.5531,6.8292c0-1.4206-.4787-1.2029-2.595,1.1807-1.8948,2.134-1.8929,2.1392.345.9648 1.2375-.6494 2.25-1.6149 2.25-2.1455zm14-1.5829c0-1.375-.3937-2.2567-.875-1.9592s-.875,1.6658-.875,3.0408 .3937,2.2566.875,1.9592 .875-1.6658.875-3.0408zm2.6042-3.1111c-.3323-.3323-.5686.2583-.5252,1.3125 .048,1.1649.2849,1.4019.6042.6042 .2889-.7219.2534-1.5844-.0789-1.9167h-4e-005zm-5.5475-5.6619c3.3373-3.1998 5.905-5.9806 5.7061-6.1795s-3.7144,2.8256-7.8122,6.7212-6.6655,6.6763-5.7061,6.1795 4.4749-3.5214 7.8122-6.7211zm-7.0567-5.4777c3.025-2.9074 7.0747-6.4888 8.9993-7.9587s4.8496-4.0225 6.5-5.6725c5.3212-5.3199 24.7142-22.9357 27.5914-25.0627 1.5346-1.1345 8.3295-7.2752 15.0997-13.646s17.4846-16.3111 23.8096-22.0894c25.3083-23.1209 30.5607-28.7019 27.0124-28.7019-.5432,0-4.5655,3.4257-8.9384,7.6127-7.524,7.2041-12.074,11.0061-12.074,10.0891 0-.538 7.0652-7.6926 14.8826-15.0707 3.6977-3.4899 6.0843-6.5301 5.8877-7.5-.2324-1.147-3.4382,1.3789-10.8004,8.51-5.7584,5.5776-12.0449,11.5893-13.9699,13.3593s-7.1,6.6782-11.5,10.907-9.4625,8.5516-11.25,9.6062-3.25,2.2958-3.25,2.758-3.4771,4.1631-7.7268,8.2243c-8.7764,8.3869-9.52,11.3242-.8641,3.4132 3.1131-2.8452 5.9608-4.8725 6.3282-4.5051 .7205.7205-13.7573,15.1655-28.16,28.096-4.9009,4.4-11.4534,10.5875-14.5609,13.75s-5.9032,5.75-6.2124,5.75c-.9862,0-19.804,18.3481-19.804,19.3096s3.5575-2.103 13-11.1784zm57-56.8735c0-.8152 14.0276-14.6353 20.0985-19.8012 1.3208-1.1239 4.089-3.533 6.1515-5.3536 6.2139-5.485 4.2135-1.7804-2.5,4.63-21.7487,20.7665-23.75,22.4961-23.75,20.5248zm-66,59.2423c0-.825-.1699-1.5-.3776-1.5s-.9377.675-1.6224,1.5c-1.0196,1.2285-.9512,1.5.3776,1.5 .8923,0 1.6224-.675 1.6224-1.5zm1.4896-8.3438c-.2693-.2693-.6021-.3021-.7396-.0729s-1.3734,1.7667-2.7464,3.4167l-2.4964,3 3.2359-2.9271c1.7798-1.6099 3.0156-3.1474 2.7464-3.4167zm3.5104,3.3438c.6944-.8367.8027-1.5.2449-1.5-.55,0-1.5602.675-2.2449,1.5-.6944.8367-.8027,1.5-.2449,1.5 .55,0 1.5602-.675 2.2449-1.5zm26-5.75c5e-005-1.2382-.4564-.9106-4.0538,2.9096l-3.4462,3.6596 3.75-2.9096c2.0625-1.6003 3.75-3.2471 3.75-3.6596zm-21.5,2.25c.3399-.55-.057-1-.882-1s-1.7781.45-2.118,1 .057,1 .882,1 1.7781-.45 2.118-1zm-10.7-1.2c1.9119-1.9119 1.3896-2.9354-.8-1.5679-2.0204,1.2618-2.6734,2.7679-1.2,2.7679 .44,0 1.34-.54 2-1.2zm7.7-1.8c.3399-.55.168-1-.382-1s-1.2781.45-1.618,1-.168,1 .382,1 1.2781-.45 1.618-1zm3.3333-9.1889c.6813-1.6576-.5327-.689-4.8751,3.89l-4.4582,4.701 4.5-3.89c2.475-2.1395 4.65-4.255 4.8333-4.701zm7.8874,3.612c4.2655-4.0849 4.4026-4.3403 1.2746-2.3757-3.1581,1.9836-7.8546,6.9526-6.5713,6.9526 .2846,0 2.6681-2.0596 5.2967-4.577zm17.4069,2.9132c1.2445-1.5086 1.1627-1.5519-.8776-.4648-2.327,1.2399-2.8999,2.1285-1.3724,2.1285 .4827,0 1.4952-.7487 2.25-1.6637zm11.4608-4.0812c-1.0755-1.0755-1.6465.4308-.8915,2.3518 .7082,1.8021.7617,1.8052 1.1119.0649 .2024-1.0055.1032-2.093-.2205-2.4167v-4e-005zm-32.5884-.2551c0-.55-.4766-1-1.059-1s-.7809.45-.441,1 .8165,1 1.059,1 .441-.45.441-1zm55.4988-3.25c.3418-2.3375.4818-8.075.3113-12.75l-.3101-8.5-5.6136,5.6551c-5.0896,5.1272-5.6607,6.1446-6.1175,10.8987-.7984,8.3093-.3864,8.9462 5.7865,8.9462h5.3221l.6214-4.25zm-26.4988-.25c.6847-.825 1.0199-1.5.7449-1.5s-1.0602.675-1.7449,1.5-1.0199,1.5-.7449,1.5 1.0602-.675 1.7449-1.5zm-16.1064-3.0927c3.1913-3.6702 2.0434-3.9948-1.4036-.3969-1.5753,1.6443-2.4112,2.9896-1.8574,2.9896s2.0212-1.1667 3.2611-2.5927zm-11.6185-3.2069c.3803,1.0408.7387,1.0507 1.7999.0496 1.0912-1.0294 1.025-1.25-.375-1.25-2.6832,0-2.0597-1.1895 3.0419-5.8027 2.617-2.3665 3.8581-3.8622 2.7581-3.3238s-4.475,3.5429-7.5,6.6765c-3.0581,3.168-4.3234,4.9546-2.8499,4.0242 2.0751-1.3104 2.7532-1.3915 3.125-.3739v-2e-005zm62.3871-2.4504c-.2774-.6875-.5044-.125-.5044,1.25s.227,1.9375.5044,1.25 .2774-1.8125 0-2.5zm-43.6623.25c0-1.1.3527-2 .7837-2 1.6649,0 16.6756-15.272 15.4488-15.7178-.6971-.2533-2.1209.592-3.1639,1.8786-2.5542,3.1505-3.6803,1.7332-1.4492-1.8241l1.7792-2.8368-2.9041,2.5c-4.7607,4.0982-5.4944,4.8278-5.4944,5.4638 0,.3336.9385.1043 2.0856-.5096s2.3033-.8986 2.5693-.6326c.8492.8492-1.8096,4.049-7.2112,8.6784-6.1014,5.2292-7.2176,7-4.4124,7 1.3019,0 1.9686-.6773 1.9686-2zm-6-1.107c0-1.286-.5789-1.1054-2.019.6299-1.0568,1.2734-.9949,1.4197.3776.893 .9028-.3464 1.6414-1.0317 1.6414-1.5229zm-5.2343-.643c.9711-.9625 3.5336-3.2001 5.6943-4.9724s3.725-3.426 3.476-3.675-3.1489,1.9711-6.4443,4.9334-5.6542,5.4035-5.2417,5.425 1.5446-.7485 2.5157-1.711zm59.077-11-.1573-7.75-.6583,7c-.3621,3.85-.4897,7.3375-.2836,7.75 .965,1.9317 1.2445.1519 1.0993-7zm-45.0153,2.7681c.2722-.8166-.5436-.5958-2.1638.5856-1.4304,1.043-2.6148,2.2887-2.6321,2.7683-.0447,1.241 4.2701-1.7764 4.7959-3.3539zm25.4074.4819c1.7793-2.4218.5345-2.354-1.7347.0945-1.375,1.4836-2.5,2.9119-2.5,3.174 0,.5903 3.233-1.905 4.2347-3.2685zm15.3695-.2292c-.3323-.3323-.5686.2583-.5252,1.3125 .048,1.1649.2849,1.4019.6042.6042 .2889-.7219.2534-1.5844-.0789-1.9167h-4e-005zm-50.1112-2.2594c.3503-.5669-.0511-.7345-.941-.393-1.7324.6648-2.0494,1.3816-.611,1.3816 .5175,0 1.2159-.4449 1.5519-.9886zm41.5071-4.5115c1.8658-1.925 3.1673-3.5 2.8923-3.5-.275,0-2.0265,1.575-3.8923,3.5s-3.1673,3.5-2.8923,3.5c.275,0 2.0265-1.575 3.8923-3.5zm9,.5c0-1.1-.4079-2-.9064-2s-.671.9-.3834,2c.6705,2.5639 1.2898,2.5639 1.2898,0zm-43.4697-2.803c-.6719-.6719-3.5303,1.8222-3.5303,3.0805 0,.5679.9028.2156 2.0061-.783s1.7893-2.0324 1.5242-2.2975zm4.8513,1.2511c.3415-.8899.1739-1.2913-.393-.941-.5437.336-.9886,1.0344-.9886,1.5519 0,1.4384.7168,1.1215 1.3816-.611zm5.1365-4.2203c1.1099-.9503 2.9099-2.8369 4-4.1926 1.95-2.425 1.9296-2.4221-1.2626.1809-1.7845,1.4551-4.1536,2.9342-5.2645,3.2868s-1.7618,1.0587-1.4464,1.5691c.8115,1.313 1.6659,1.1315 3.9735-.8442zm-3.018-3.2278c.9955-1.1 1.585-2 1.31-2-.275,0-1.3145.9-2.31,2s-1.585,2-1.31,2c.275,0 1.3145-.9 2.31-2zm12.5-1.0911c0-.4654-.675-.5871-1.5-.2706s-1.5,1.2576-1.5,2.0911c0,1.2337.2789,1.284 1.5.2706 .825-.6847 1.5-1.6257 1.5-2.0911zm7.5-5.9525c1.9937-2.137 2.3291-2.8424 1-2.1029-2.6071,1.4505-4.6454,3.1941-6.5,5.5602-1.3957,1.7807-1.3609,1.8388.5.8361 1.1-.5927 3.35-2.5247 5-4.2933zm-12.5.7558 2.5-3.1771-3.2198,2.279c-3.7745,2.6716-4.9236,4.2081-3.0893,4.1305 .72-.0304 2.434-1.485 3.809-3.2324zm21.1883-13.9355c4.7786-4.6724 10.1786-9.7355 12-11.2515 3.4987-2.912 30.5573-28.3422 34.4973-32.4213 2.159-2.2352 2.9815-4.104 1.8063-4.104-.2794,0-6.9169,6.2119-14.75,13.8042s-17.3775,16.7048-21.2099,20.25-9.9585,9.3708-13.6136,12.9458-9.182,8.8463-12.282,11.7139-5.6364,5.5098-5.6364,5.8715c0,.9932 9.4307-7.2679 19.1883-16.8086zm17.8117,11.1642c0-.5825-.45-.7809-1-.441s-1,.8165-1,1.059 .45.441 1,.441 1-.4766 1-1.059zm-34-2c0-.5825-.45-.7809-1-.441s-1,.8165-1,1.059 .45.441 1,.441 1-.4766 1-1.059zm14.1078-1.691c2.165-2.4408 14.2674-13.5861 22.5013-20.7219 3.79-3.2845 9.8816-8.9095 13.5368-12.5s8.4948-8.2554 10.7544-10.3665c4.1854-3.9105 4.7613-6.9388.7906-4.1576-3.3536,2.349-29.6909,28.6195-29.6909,29.6156 0,.4843-.5071.8805-1.1269.8805s-4.1073,2.8927-7.75,6.4281-7.8606,7.3931-9.3731,8.5726c-2.6436,2.0615-3.5992,3.9993-1.9722,3.9993 .4278,0 1.4763-.7875 2.3301-1.75zm21.699-32.7765c-.3079-.3079-.867.2471-1.2426,1.2333-.5427,1.4252-.4278,1.5401.5598.5598 .6834-.6783.9907-1.4852.6828-1.7931zm4.1931-2.9735c1.2918-1.375 2.1236-2.5 1.8486-2.5s-1.5569,1.125-2.8486,2.5-2.1236,2.5-1.8486,2.5 1.5569-1.125 2.8486-2.5zm14.483-13.1636c5.2378-5.315 9.2984-9.8884 9.0237-10.1631s-4.6512,3.6011-9.7254,8.6129c-5.2713,5.2066-9.5056,8.6598-9.8786,8.0564-.4413-.714-.8967-.6614-1.4059.1624-.5899.9545.8593,2.8881 2.233,2.9796 .1264.008 4.5153-4.3333 9.7531-9.6482zm-927.0181,93.6067c-.8858-1.4333.3236-5.9432 1.5938-5.9432 .5613,0 2.8027-1.8182 4.981-4.0404 3.0721-3.1342 3.9604-4.8164 3.9604-7.5 0-1.9028.45-3.4596 1-3.4596s1,.9 1,2c0,1.6953.7237,2.0261 4.75,2.1711 2.6125.0941 5.425.2712 6.25.3937 .825.1225 2.0625.2705 2.75.329 .7379.0628 1.25,1.5195 1.25,3.5556 0,3.907-3.8452,8.2791-10.2102,11.6094-4.0939,2.142-16.1668,2.7584-17.325.8844zm10.2454-6.9432c.6095-2.3306 2.2898-2.6975 2.2898-.5 0,2.1934 1.1019,1.8647 5.2721-1.5728 4.6176-3.8062 4.6915-4.9272.3246-4.9272-2.6379,0-4.4932,1.0031-8.25,4.4603-4.3367,3.991-4.6001,4.4645-2.5031,4.5 1.5229.0258 2.5268-.6606 2.8666-1.9603zm216.8612-5.5714c-.8748-.8748-1.5714-3.2487-1.5714-5.3549 0-3.9451 2.4776-6.8311 14.7495-17.1807 3.9937-3.3681 4.1442-3.6789 2.5-5.1635-1.5034-1.3574-1.7059-3.1199-1.4394-12.5285 .2717-9.5947.5443-11.0573 2.204-11.8249 1.0416-.4818 4.8339-3.3186 8.4273-6.3041l6.5334-5.4281-2.7374-1.2439c-13.431-6.103-22.5008-8.6973-27.1534-7.7668-3.2276.6455-8.206,5.7991-7.518,7.7825 .7862,2.2665 1.538,7.5317 3.0001,21.0102 1.7114,15.7773 1.4495,16.6866-4.8593,16.8654-4.8636.1379-6.3323-1.4429-7.0135-7.5482-1.4966-13.4141-5.7919-46.4076-6.2228-47.7985-.6213-2.0055 2.8611-5.7387 6.1148-6.5554 3.1947-.8018 23.1128.3426 25.075,1.4407 1.2747.7134 1.262.9896-.0973,2.1177-1.0519.873-1.5632.9302-1.5632.1749 0-.6173-1.125-1.1224-2.5-1.1224-2.3573,0-2.4964.2998-2.4366,5.25 .0561,4.6497.1859,4.9641 1.1353,2.75l1.0719-2.5 .6608,2.5c.5795,2.1926.7473,2.2748 1.3647.6682 .3872-1.0075.7678-2.8075.8459-4s.4642-.3682.8581,1.8318l.7162,4 .1419-4.1276c.0781-2.2702.7525-4.6343 1.4988-5.2536 2.816-2.3371 11.749,1.0729 23.8383,9.0998 6.0627,4.0255 8.016,4.4416 12.4898,2.6608 6.4281-2.5587 17.9136-2.7118 28.0997-.3748 8.6815,1.9919 10.5692,4.1014 10.8767,12.1552 .1115,2.9211.4779,5.7562.8141,6.3002 .9035,1.4619-5.998,9.7319-16.3144,19.5493-11.4997,10.9435-15.5708,12.7181-29.8859,13.0275l-10.225.221-6.275,6.5161c-3.4513,3.5839-8.5601,9.0383-11.3529,12.121-4.3746,4.8286-5.5766,5.6049-8.6786,5.6049-1.9804,0-4.3079-.7071-5.1721-1.5714zm6.4286-2.4876c0-.5825-.45-.7809-1-.441-1.5397.9516-1.1845-.4583.5532-2.1961 .8543-.8543 1.4168-2.5096 1.25-3.6786-.434-3.0417-3.9011-2.7051-5.7317.5563-1.3756,2.4508-1.344,2.8597.3666,4.75 1.9915,2.2006 4.5618,2.7693 4.5618,1.0093zm6.1823-10.2978c-2.1642-1.2008-2.2037-1.3805-.5963-2.7146 .9467-.7857 1.9897-1.3161 2.3177-1.1786s.5963-.275.5963-.9167 .6251-1.375 1.3892-1.6297c.9607-.3202 1.1328-.0375.558.9167-1.0686,1.7739 2.6573-1.0021 3.8525-2.8703 .4398-.6875 1.4789-1.25 2.309-1.25s1.2504-.4189.934-.9309-.1107-1.2181.4573-1.5691 .7981-1.0177.5114-1.4816 .5934-.721 1.9558-.5715 2.238-.1148 1.9459-.5875-.028-.8594.5869-.8594 .8873-.3734.6052-.8298 1.9414-3.2535 4.941-6.2158 5.4538-5.7389 5.4538-6.1702c0-2.2033-3.5341-.126-9.6695,5.6838-3.7568,3.5574-7.393,6.4824-8.0805,6.5s-1.25.6695-1.25,1.4487-.3954,1.5667-.8787,1.75c-2.2742.8627-13.1213,11.2457-13.1213,12.5599 0,.8327.5901,1.2609 1.3407.9729 .7374-.283 1.9749-.113 2.75.3777s1.8593.8831 2.4093.872-.043-.5988-1.3177-1.3061zm4.8177-7.9561c0-.1721 1.4267-1.6346 3.1705-3.25l3.1705-2.9371-2.2386,3.25c-1.8374,2.6676-4.1024,4.2892-4.1024,2.9371zm13-13.1871c.6847-.825 1.4007-1.5 1.5911-1.5s.0871.675-.2294,1.5-1.0326,1.5-1.5911,1.5c-.5853,0-.4881-.6354.2294-1.5zm25.75,5.6165c4.6888-1.3168 4.6977-1.342 4.2901-12.1165-.2434-6.4355-2.3285-10.4194-5.0771-9.7006-1.0269.2685-2.0112.0561-2.1873-.4721-.9486-2.8459-34.0314-1.6079-35.9025,1.3435-.4635.7311-.8496,5.0259-.858,9.5441-.0135,7.2609.2222,8.3419 2.0302,9.3095 1.7612.9425 2.8385.4045 7.75-3.8709 3.1375-2.7311 7.0262-6.3579 8.6416-8.0595 3.5935-3.7854 7.166-4.0592 8.7113-.6677 1.5819,3.4719.2525,7.4368-3.7106,11.0669-1.8908,1.7319-3.4377,3.5898-3.4377,4.1288 0,1.3484 14.4673.9782 19.75-.5055zm-6.0801-12.8417c-.2824-.4569.3661-1.9432 1.4411-3.3028l1.9545-2.472-.2827,2.9229c-.2759,2.8527-2.087,4.5119-3.1129,2.852zm-60.1926,5.9752c-.3549-2.6125-.8508-5.4996-1.102-6.4158s-.0402-1.9232.4689-2.2378 1.2419,2.3829 1.6287,5.9945 .9486,6.3211 1.2485,6.0211c.7091-.7091.7062-9.623-.004-12.1542-.3021-1.0768-.8362-4.0719-1.1868-6.6559-.4799-3.5362-.9953-4.5608-2.0841-4.143s-1.4293-.2671-1.3762-2.8019c.0583-2.7846.2168-3.016.9297-1.357 .6487,1.5096.8767.8497.9297-2.691 .0387-2.58-.3797-4.9691-.9297-5.309-1.4951-.9241-1.2059-3.5.393-3.5 .7662,0 1.6432-.6521 1.9491-1.4491 .3556-.9267.0754-1.2646-.7772-.9374-1.038.3983-1.2156-.5322-.8021-4.2008 .3829-3.3971.211-4.5145-.6158-4.0035-1.1157.6895-1.3332.1516-1.545-3.8209-.1326-2.4875-1.7085-2.9621-4.0794-1.2285-1.7992,1.3156-1.8336,1.9711-.6693,12.7635 1.9475,18.0526 5.1025,40.7644 5.8521,42.1267 .227.4125.8637.75 1.4149.75 .6196,0 .7559-1.8136.3569-4.75zm-1.4772-12.25c0-1.1.1725-2 .3834-2s.6187.9.9064,2 .1151,2-.3834,2-.9064-.9-.9064-2zm-.9211-29.4167c-.0434-1.0542.1929-1.6448.5252-1.3125s.3678,1.1948.0789,1.9167c-.3192.7977-.5562.5608-.6042-.6042h4e-005zm78.4211,40.4167c-.3399-.55-.8165-1-1.059-1s-.441.45-.441,1 .4766,1 1.059,1 .7809-.45.441-1zm-.8958-6.7292c-.3323-.3323-.5686.2583-.5252,1.3125 .048,1.1649.2849,1.4019.6042.6042 .2889-.7219.2534-1.5844-.0789-1.9167h-4e-005zm5.4343-5.2708c1.1641,0 2.3568,4.5514 1.5394,5.8741-.3357.5433-.1531,1.2704.4059,1.6159 .6518.4028 1.0163-1.904 1.0163-6.4309 0-5.9771-.2606-7.059-1.7-7.059-1.3222,0-1.4333.2667-.5,1.2 1.643,1.643 1.5119,3.1337-.2172,2.4701-1.8379-.7053-2.6255,1.4737-2.408,6.6617l.1747,4.1682 .3828-4.25c.2105-2.3375.7983-4.25 1.3062-4.25zm-75.4343,2.2708c-.3323-.3323-.5686.2583-.5252,1.3125 .048,1.1649.2849,1.4019.6042.6042 .2889-.7219.2534-1.5844-.0789-1.9167h-4e-005zm82.2228-1.7708c-.2675-3.9716-1.377-4.6338-2.0311-1.2123-.5255,2.7493.0238,4.7123 1.3188,4.7123 .5214,0 .8419-1.575.7123-3.5zm3.6366-8.0535c.4347-5.772.3066-6.6674-.7576-5.2961-.7044.9077-1.1879,2.9327-1.0746,4.5s.2427,4.1621.2874,5.7663c.1403,5.0351.9995,2.2704 1.5448-4.9702zm-15.037,2.8036c9.1546-6.2406 17.8564-15.3004 16.2443-16.9125-2.0013-2.0013-24.1852-3.8219-31.0888-2.5513-2.1548.3966-4.0964,1.2567-4.3147,1.9115-.7261,2.1782 12.9226,4.4699 18.7088,3.1413 1.6301-.3743 2.5073,2.9396 1.2762,4.8209-.4175.6379-3.5688,1.7402-7.0031,2.4495-5.0761,1.0485-7.6941,1.0514-13.9967.0159-4.264-.7006-9.1027-1.4781-10.7527-1.728-2.4353-.3687-3.9649.3633-8.1262,3.889l-5.1262,4.3432 13.4253-.2713c7.3839-.1492 14.5443.1541 15.9118.6741 1.9081.7255 2.6194.599 3.0579-.5434 .8161-2.1267 2.3573-1.8404 2.3573.4379 0,1.7007 1.3116,2.573 4.4463,2.9573 .5204.0638 2.7616-1.1215 4.9803-2.634v4e-005zm18.5889-3.25c.0935-2.475.0896-5.625-.009-7l-.1787-2.5-.7793,2.5697c-1.1268,3.7153-1.2156,13.503-.1122,12.3665 .5002-.5149.9857-2.9612 1.0792-5.4362zm-90.3262.25c-.2515-.9625-.4573-.175-.4573,1.75s.2058,2.7125.4573,1.75 .2515-2.5375 0-3.5zm83.3107.691c0-1.7847-.4166-2.8016-1-2.441-.55.3399-1,1.7165-1,3.059s.45,2.441 1,2.441 1-1.3766 1-3.059zm-29-8.9096c0-1.339-.4797-1.7845-1.5-1.393-.825.3166-1.5.13-1.5-.4148s-.9-1.2257-2-1.5134c-1.4528-.3799-2-.0307-2,1.2764 0,1.8515 2.5278,3.4232 4.0211,2.5003 .4624-.2858 1.1233-.0622 1.4688.4968 .9643,1.5603 1.5101,1.2162 1.5101-.9523zm2.6042-.7605c-1.0165-1.0165-1.8553.5139-1.0212,1.8634 .63,1.0194.8656,1.0202 1.2043.004 .2316-.6948.1492-1.5351-.1831-1.8674v4e-005zm3.3958.6702c0-1.1325-.45-1.7809-1-1.441s-1,1.2665-1,2.059 .45,1.441 1,1.441 1-.9266 1-2.059zm3,0c0-.5175-.45-.941-1-.941s-1,.7016-1,1.559 .45,1.2809 1,.941 1-1.0415 1-1.559zm6-.441c0-.825-.1769-1.5-.393-1.5s-.652.675-.9686,1.5-.1397,1.5.393,1.5 .9686-.675.9686-1.5zm-26.6042-3.6607c-.1286-1.8578-.9767-3.5849-2.0573-4.1896-1.0112-.5659-1.9316-.831-2.0454-.5893s-.887-.4604-1.7182-1.5604c-1.4248-1.8856-1.5131-1.7535-1.5431,2.309-.0191,2.5874.3626,4.0653.9553,3.699 .5429-.3355 1.9777.3129 3.1886,1.441 2.973,2.7698 3.4767,2.5962 3.2202-1.1097zm-2.8958.1607c-.3399-.55-.1415-1 .441-1s1.059.45 1.059,1-.1984,1-.441,1-.7191-.45-1.059-1zm5.7447.5c.2628-1.375.0903-2.5-.3834-2.5s-.8613,1.125-.8613,2.5 .1725,2.5.3834,2.5 .5985-1.125.8613-2.5zm-11.7437-8.1863c-.4112-1.5475-.9627-2.2273-1.2254-1.5107-.3544.9666-.8307.8375-1.8449-.5-1.2183-1.6066-1.3707-1.2857-1.399,2.947-.0348,5.2055.5475,5.9571 1.937,2.5 .848-2.1097.9126-2.0629 1.0355.75 .1242,2.842.1867,2.8848 1.1878.8137 .5973-1.2358.7317-3.4096.309-5zm-32.5164,2.3773c.008-.445-.4347-.5309-.9847-.191s-.9931,1.379-.9847,2.309c.0132,1.4573.1493,1.4837.9847.191 .5332-.825.9763-1.8641.9847-2.309zm27-4.441c.008-1.7875-.4347-3.25-.9847-3.25s-.9931,2.1375-.9847,4.75c.0111,3.4355.2836,4.3349.9847,3.25 .5332-.825.9763-2.9625.9847-4.75zm-4.0285,3.2229c.6605.4082 1.0438-.867 1.0438-3.4729 0-2.2649-.3897-3.8772-.8659-3.5829s-.6488,1.6709-.3834,3.059c.2828,1.4796.0205,2.5239-.6341,2.5239-.6141,0-1.1166-1.6016-1.1166-3.559 0-2.3222-.3802-3.324-1.0942-2.8828-.6018.3719-.8871,1.7592-.6341,3.0829s.0704,2.6475-.4058,2.9418-.9366-1.6289-1.023-4.2739l-.1571-4.809-.6143,5c-.6755,5.4975 1.0004,8.5151 3.5527,6.397 .7085-.588 1.758-.7788 2.3321-.424zm-24.8564-4.5506 .5998-4.4223 .1502,3.7814c.1705,4.2921 2.6583,6.1118 4.6437,3.3966 .6623-.9058 1.4683-1.3829 1.7909-1.0603 .8639.8639 2.0377-6.3361 1.3325-8.1736-.3316-.864-1.056-1.2908-1.6099-.9485s-1.0071.1193-1.0071-.4956-.4919-.814-1.0932-.4424-2.8512.6513-5,.6217-3.9068.3679-3.9068.8834 .4916.9373 1.0925.9373c.6992,0 .9692,1.9808.75,5.5015-.4114,6.607 1.3731,6.9397 2.2573.4208zm5.5386-1.4224c-.3166-.825-.1397-1.5.393-1.5s.9686.675.9686,1.5-.1769,1.5-.393,1.5-.652-.675-.9686-1.5zm209.4674,30.5988c-3.9042-3.6471-4.1387-7.7797-.6286-11.0773 3.4707-3.2606 8.166-2.98 11.1497.6663 3.1589,3.8603 2.9432,5.9422-1.0268,9.9123-4.1496,4.1496-5.5095,4.2211-9.4942.4988zm3.9095-4.3488c.0124-1.8194.2008-1.963.9847-.75 .7206,1.1151.9435.6019.8687-2-.0554-1.925-.3111-2.6886-.5682-1.6969-.3712,1.4314-.7596,1.5608-1.884.6276-1.1776-.9773-1.4165-.5647-1.4165,2.4469 0,1.9924.45,3.6225 1,3.6225s1.0069-1.0125 1.0153-2.25zm4.0282-3.3354c-.8047-2.6908-.8759-2.5691-.9271,1.5854-.0397,3.2188.2084,4.0486.8716,2.9147 .5467-.9349.5695-2.7812.0555-4.5h4e-005zm437.1563-6.1563c-6.9205-.3914-8.6798-1.9654-5.7794-5.1704 .9146-1.0107 1.5317-2.4322 1.3713-3.159-.17-.77 1.3646-1.8846 3.6778-2.6713 4.216-1.4337 5.635-2.8218 4.8843-4.7781-.2873-.7488.9727-1.4435 3.3425-1.843 11.593-1.9543 15.7716-2.4654 16.4964-2.0174 2.0909,1.2922.2039,4.4823-6.6927,11.3145-4.125,4.0865-7.5,7.7981-7.5,8.2482s-.7875.7315-1.75.6255-4.5851-.353-8.0502-.549zm2.5502-2.9476c-.9625-.2515-2.5375-.2515-3.5,0s-.175.4573 1.75.4573 2.7125-.2058 1.75-.4573zm-.4496-3.6511c.3162-.824 1.6094-1.1941 3.357-.9605 2.323.3105 3.846-.5848 8.3319-4.898 4.3648-4.1968 5.1168-5.3496 3.6709-5.6281-3.0924-.5955-5.9749.6121-10.8467,4.5443-2.5776,2.0804-5.9526,4.7891-7.5,6.0192l-2.8134,2.2366 2.643.0134c1.4537.007 2.8745-.5898 3.1574-1.327v2e-005zm-650.1425-12.6596c0-1.375.227-1.9375.5044-1.25s.2774,1.8125 0,2.5-.5044.125-.5044-1.25z"/>
 </g>
</svg>
